<?xml version="1.0" encoding="utf-8"?>
<!-- Generator: Adobe Illustrator 16.0.0, SVG Export Plug-In . SVG Version: 6.00 Build 0)  -->
<!DOCTYPE svg PUBLIC "-//W3C//DTD SVG 1.1//EN" "http://www.w3.org/Graphics/SVG/1.1/DTD/svg11.dtd">
<svg version="1.1" id="Layer_1" xmlns="http://www.w3.org/2000/svg" xmlns:xlink="http://www.w3.org/1999/xlink" x="0px" y="0px"
	 width="800px" height="600px" viewBox="0 0 800 600" enable-background="new 0 0 800 600" xml:space="preserve">
<g>
	<g transform="translate(50,0)">
		<text transform="matrix(1 0 0 1 -50 -7)" font-family="'ArialMT'" font-size="10">null</text>
		<g transform="translate(0,0)">
			<g transform="translate(0,550)">
				<line fill="none" stroke="#CCCCCC" x1="0" y1="0" x2="-6" y2="0"/>
				<text transform="matrix(1 0 0 1 -22.9014 3.2002)" font-family="'ArialMT'" font-size="10">0.0</text>
			</g>
			<g transform="translate(0,533.8235294117648)">
				<line fill="none" stroke="#CCCCCC" x1="0" y1="0" x2="-6" y2="0"/>
				<text transform="matrix(1 0 0 1 -22.9014 3.1999)" font-family="'ArialMT'" font-size="10">0.5</text>
			</g>
			<g transform="translate(0,517.6470588235294)">
				<line fill="none" stroke="#CCCCCC" x1="0" y1="0" x2="-6" y2="0"/>
				<text transform="matrix(1 0 0 1 -22.9014 3.1996)" font-family="'ArialMT'" font-size="10">1.0</text>
			</g>
			<g transform="translate(0,501.4705882352941)">
				<line fill="none" stroke="#CCCCCC" x1="0" y1="0" x2="-6" y2="0"/>
				<text transform="matrix(1 0 0 1 -22.9014 3.2003)" font-family="'ArialMT'" font-size="10">1.5</text>
			</g>
			<g transform="translate(0,485.2941176470588)">
				<line fill="none" stroke="#CCCCCC" x1="0" y1="0" x2="-6" y2="0"/>
				<text transform="matrix(1 0 0 1 -22.9014 3.2)" font-family="'ArialMT'" font-size="10">2.0</text>
			</g>
			<g transform="translate(0,469.11764705882354)">
				<line fill="none" stroke="#CCCCCC" x1="0" y1="0" x2="-6" y2="0"/>
				<text transform="matrix(1 0 0 1 -22.9014 3.1997)" font-family="'ArialMT'" font-size="10">2.5</text>
			</g>
			<g transform="translate(0,452.94117647058823)">
				<line fill="none" stroke="#CCCCCC" x1="0" y1="0" x2="-6" y2="0"/>
				<text transform="matrix(1 0 0 1 -22.9014 3.2004)" font-family="'ArialMT'" font-size="10">3.0</text>
			</g>
			<g transform="translate(0,436.764705882353)">
				<line fill="none" stroke="#CCCCCC" x1="0" y1="0" x2="-6" y2="0"/>
				<text transform="matrix(1 0 0 1 -22.9014 3.2001)" font-family="'ArialMT'" font-size="10">3.5</text>
			</g>
			<g transform="translate(0,420.5882352941176)">
				<line fill="none" stroke="#CCCCCC" x1="0" y1="0" x2="-6" y2="0"/>
				<text transform="matrix(1 0 0 1 -22.9014 3.1999)" font-family="'ArialMT'" font-size="10">4.0</text>
			</g>
			<g transform="translate(0,404.4117647058824)">
				<line fill="none" stroke="#CCCCCC" x1="0" y1="0" x2="-6" y2="0"/>
				<text transform="matrix(1 0 0 1 -22.9014 3.1996)" font-family="'ArialMT'" font-size="10">4.5</text>
			</g>
			<g transform="translate(0,388.235294117647)">
				<line fill="none" stroke="#CCCCCC" x1="0" y1="0" x2="-6" y2="0"/>
				<text transform="matrix(1 0 0 1 -22.9014 3.2003)" font-family="'ArialMT'" font-size="10">5.0</text>
			</g>
			<g transform="translate(0,372.05882352941177)">
				<line fill="none" stroke="#CCCCCC" x1="0" y1="0" x2="-6" y2="0"/>
				<text transform="matrix(1 0 0 1 -22.9014 3.2)" font-family="'ArialMT'" font-size="10">5.5</text>
			</g>
			<g transform="translate(0,355.8823529411764)">
				<line fill="none" stroke="#CCCCCC" x1="0" y1="0" x2="-6" y2="0"/>
				<text transform="matrix(1 0 0 1 -22.9014 3.1997)" font-family="'ArialMT'" font-size="10">6.0</text>
			</g>
			<g transform="translate(0,339.7058823529412)">
				<line fill="none" stroke="#CCCCCC" x1="0" y1="0" x2="-6" y2="0"/>
				<text transform="matrix(1 0 0 1 -22.9014 3.2004)" font-family="'ArialMT'" font-size="10">6.5</text>
			</g>
			<g transform="translate(0,323.5294117647059)">
				<line fill="none" stroke="#CCCCCC" x1="0" y1="0" x2="-6" y2="0"/>
				<text transform="matrix(1 0 0 1 -22.9014 3.2001)" font-family="'ArialMT'" font-size="10">7.0</text>
			</g>
			<g transform="translate(0,307.3529411764706)">
				<line fill="none" stroke="#CCCCCC" x1="0" y1="0.001" x2="-6" y2="0.001"/>
				<text transform="matrix(1 0 0 1 -22.9014 3.1998)" font-family="'ArialMT'" font-size="10">7.5</text>
			</g>
			<g transform="translate(0,291.1764705882353)">
				<line fill="none" stroke="#CCCCCC" x1="0" y1="0" x2="-6" y2="0"/>
				<text transform="matrix(1 0 0 1 -22.9014 3.2005)" font-family="'ArialMT'" font-size="10">8.0</text>
			</g>
			<g transform="translate(0,275)">
				<line fill="none" stroke="#CCCCCC" x1="0" y1="0" x2="-6" y2="0"/>
				<text transform="matrix(1 0 0 1 -22.9014 3.2002)" font-family="'ArialMT'" font-size="10">8.5</text>
			</g>
			<g transform="translate(0,258.8235294117647)">
				<line fill="none" stroke="#CCCCCC" x1="0" y1="0" x2="-6" y2="0"/>
				<text transform="matrix(1 0 0 1 -22.9014 3.1999)" font-family="'ArialMT'" font-size="10">9.0</text>
			</g>
			<g transform="translate(0,242.6470588235294)">
				<line fill="none" stroke="#CCCCCC" x1="0" y1="0" x2="-6" y2="0"/>
				<text transform="matrix(1 0 0 1 -22.9014 3.1996)" font-family="'ArialMT'" font-size="10">9.5</text>
			</g>
			<g transform="translate(0,226.47058823529412)">
				<line fill="none" stroke="#CCCCCC" x1="0" y1="0" x2="-6" y2="0"/>
				<text transform="matrix(1 0 0 1 -28.4629 3.2003)" font-family="'ArialMT'" font-size="10">10.0</text>
			</g>
			<g transform="translate(0,210.2941176470588)">
				<line fill="none" stroke="#CCCCCC" x1="0" y1="0" x2="-6" y2="0"/>
				<text transform="matrix(1 0 0 1 -28.4629 3.2)" font-family="'ArialMT'" font-size="10">10.5</text>
			</g>
			<g transform="translate(0,194.1176470588235)">
				<line fill="none" stroke="#CCCCCC" x1="0" y1="0" x2="-6" y2="0"/>
				<text transform="matrix(1 0 0 1 -27.7207 3.1997)" font-family="'ArialMT'" font-size="10">11.0</text>
			</g>
			<g transform="translate(0,177.9411764705882)">
				<line fill="none" stroke="#CCCCCC" x1="0" y1="0" x2="-6" y2="0"/>
				<text transform="matrix(1 0 0 1 -27.7207 3.2004)" font-family="'ArialMT'" font-size="10">11.5</text>
			</g>
			<g transform="translate(0,161.76470588235293)">
				<line fill="none" stroke="#CCCCCC" x1="0" y1="0" x2="-6" y2="0"/>
				<text transform="matrix(1 0 0 1 -28.4629 3.2001)" font-family="'ArialMT'" font-size="10">12.0</text>
			</g>
			<g transform="translate(0,145.58823529411762)">
				<line fill="none" stroke="#CCCCCC" x1="0" y1="0" x2="-6" y2="0"/>
				<text transform="matrix(1 0 0 1 -28.4629 3.1998)" font-family="'ArialMT'" font-size="10">12.5</text>
			</g>
			<g transform="translate(0,129.41176470588238)">
				<line fill="none" stroke="#CCCCCC" x1="0" y1="0" x2="-6" y2="0"/>
				<text transform="matrix(1 0 0 1 -28.4629 3.1996)" font-family="'ArialMT'" font-size="10">13.0</text>
			</g>
			<g transform="translate(0,113.23529411764709)">
				<line fill="none" stroke="#CCCCCC" x1="0" y1="0" x2="-6" y2="0"/>
				<text transform="matrix(1 0 0 1 -28.4629 3.2003)" font-family="'ArialMT'" font-size="10">13.5</text>
			</g>
			<g transform="translate(0,97.05882352941178)">
				<line fill="none" stroke="#CCCCCC" x1="0" y1="0" x2="-6" y2="0"/>
				<text transform="matrix(1 0 0 1 -28.4629 3.2)" font-family="'ArialMT'" font-size="10">14.0</text>
			</g>
			<g transform="translate(0,80.88235294117649)">
				<line fill="none" stroke="#CCCCCC" x1="0" y1="0" x2="-6" y2="0"/>
				<text transform="matrix(1 0 0 1 -28.4629 3.1997)" font-family="'ArialMT'" font-size="10">14.5</text>
			</g>
			<g transform="translate(0,64.70588235294119)">
				<line fill="none" stroke="#CCCCCC" x1="0" y1="0" x2="-6" y2="0"/>
				<text transform="matrix(1 0 0 1 -28.4629 3.2004)" font-family="'ArialMT'" font-size="10">15.0</text>
			</g>
			<g transform="translate(0,48.52941176470589)">
				<line fill="none" stroke="#CCCCCC" x1="0" y1="0" x2="-6" y2="0"/>
				<text transform="matrix(1 0 0 1 -28.4629 3.2001)" font-family="'ArialMT'" font-size="10">15.5</text>
			</g>
			<g transform="translate(0,32.352941176470594)">
				<line fill="none" stroke="#CCCCCC" x1="0" y1="0" x2="-6" y2="0"/>
				<text transform="matrix(1 0 0 1 -28.4629 3.1998)" font-family="'ArialMT'" font-size="10">16.0</text>
			</g>
			<g transform="translate(0,16.176470588235297)">
				<line fill="none" stroke="#CCCCCC" x1="0" y1="0" x2="-6" y2="0"/>
				<text transform="matrix(1 0 0 1 -28.4629 3.2005)" font-family="'ArialMT'" font-size="10">16.5</text>
			</g>
			<g transform="translate(0,0)">
				<line fill="none" stroke="#CCCCCC" x1="0" y1="0" x2="-6" y2="0"/>
				<text transform="matrix(1 0 0 1 -28.4629 3.2002)" font-family="'ArialMT'" font-size="10">17.0</text>
			</g>
			<path fill="none" stroke="#CCCCCC" d="M-6,0h6v550h-6"/>
		</g>
		<rect x="1" fill="#BF6969" width="76" height="550"/>
		<rect x="85" y="129.412" fill="#BFA269" width="76" height="420.588"/>
		<rect x="169" y="161.765" fill="#A2BF69" width="76" height="388.235"/>
		<rect x="253" y="194.118" fill="#69BF69" width="76" height="355.882"/>
		<rect x="337" y="226.471" fill="#69BFA2" width="76" height="323.529"/>
		<rect x="421" y="291.176" fill="#69A2BF" width="76" height="258.824"/>
		<rect x="505" y="420.588" fill="#6969BF" width="76" height="129.412"/>
		<rect x="589" y="517.647" fill="#A269BF" width="76" height="32.353"/>
		<rect x="673" y="517.647" fill="#BF69A2" width="76" height="32.353"/>
	</g>
	<g transform="translate(39,0)">
		<line fill="none" stroke="#CCCCCC" x1="50" y1="550" x2="50" y2="556"/>
		<text transform="matrix(1 0 0 1 18.5986 566.0996)" font-family="'ArialMT'" font-size="10">viaje/recorrido</text>
	</g>
	<g transform="translate(123,0)">
		<line fill="none" stroke="#CCCCCC" x1="50" y1="550" x2="50" y2="556"/>
		<text transform="matrix(1 0 0 1 11.0864 566.0996)" font-family="'ArialMT'" font-size="10">liberacion/escape</text>
	</g>
	<g transform="translate(207,0)">
		<line fill="none" stroke="#CCCCCC" x1="50" y1="550" x2="50" y2="556"/>
		<text transform="matrix(1 0 0 1 16.3696 566.0996)" font-family="'ArialMT'" font-size="10">historia/epocas</text>
	</g>
	<g transform="translate(291,0)">
		<line fill="none" stroke="#CCCCCC" x1="50" y1="566.1" x2="50" y2="572.1"/>
		<text transform="matrix(1 0 0 1 -5.5835 582.1992)" font-family="'ArialMT'" font-size="10">transformacion/evolucion</text>
	</g>
	<g transform="translate(375,0)">
		<line fill="none" stroke="#CCCCCC" x1="50" y1="550" x2="50" y2="556"/>
		<text transform="matrix(1 0 0 1 20.542 566.0996)" font-family="'ArialMT'" font-size="10">escena/actriz</text>
	</g>
	<g transform="translate(459,0)">
		<line fill="none" stroke="#CCCCCC" x1="50" y1="550" x2="50" y2="556"/>
		<text transform="matrix(1 0 0 1 8.3027 566.0996)" font-family="'ArialMT'" font-size="10">un sueño/recuerdo</text>
	</g>
	<g transform="translate(543,0)">
		<line fill="none" stroke="#CCCCCC" x1="50" y1="550" x2="50" y2="556"/>
		<text transform="matrix(1 0 0 1 35.5469 566.0996)" font-family="'ArialMT'" font-size="10">guerra</text>
	</g>
	<g transform="translate(627,0)">
		<line fill="none" stroke="#CCCCCC" x1="50" y1="550" x2="50" y2="556"/>
		<text transform="matrix(1 0 0 1 31.1016 566.0996)" font-family="'ArialMT'" font-size="10">princesa</text>
	</g>
	<g transform="translate(711,0)">
		<line fill="none" stroke="#CCCCCC" x1="50" y1="550" x2="50" y2="556"/>
		<text transform="matrix(1 0 0 1 32.7656 566.0996)" font-family="'ArialMT'" font-size="10">infancia</text>
	</g>
	<path fill="none" stroke="#CCCCCC" d="M50,556v-6h750v6"/>
</g>
</svg>
