<?xml version="1.0" encoding="utf-8"?>
<!-- Generator: Adobe Illustrator 16.0.0, SVG Export Plug-In . SVG Version: 6.00 Build 0)  -->
<!DOCTYPE svg PUBLIC "-//W3C//DTD SVG 1.1//EN" "http://www.w3.org/Graphics/SVG/1.1/DTD/svg11.dtd">
<svg version="1.1" id="Layer_1" xmlns="http://www.w3.org/2000/svg" xmlns:xlink="http://www.w3.org/1999/xlink" x="0px" y="0px"
	 width="800px" height="600px" viewBox="0 0 800 600" enable-background="new 0 0 800 600" xml:space="preserve">
<g transform="translate(50,0)">
	<text transform="matrix(1 0 0 1 -50 -7)" font-family="'ArialMT'" font-size="10">null</text>
	<g transform="translate(0,0)">
		<g transform="translate(0,550)">
			<line fill="none" stroke="#CCCCCC" x1="0" y1="0" x2="-6" y2="0"/>
			<text transform="matrix(1 0 0 1 -22.9014 3.2002)" font-family="'ArialMT'" font-size="10">0.0</text>
		</g>
		<g transform="translate(0,536.25)">
			<line fill="none" stroke="#CCCCCC" x1="0" y1="0" x2="-6" y2="0"/>
			<text transform="matrix(1 0 0 1 -22.9014 3.2002)" font-family="'ArialMT'" font-size="10">0.2</text>
		</g>
		<g transform="translate(0,522.5)">
			<line fill="none" stroke="#CCCCCC" x1="0" y1="0" x2="-6" y2="0"/>
			<text transform="matrix(1 0 0 1 -22.9014 3.2002)" font-family="'ArialMT'" font-size="10">0.4</text>
		</g>
		<g transform="translate(0,508.75)">
			<line fill="none" stroke="#CCCCCC" x1="0" y1="0" x2="-6" y2="0"/>
			<text transform="matrix(1 0 0 1 -22.9014 3.2002)" font-family="'ArialMT'" font-size="10">0.6</text>
		</g>
		<g transform="translate(0,495)">
			<line fill="none" stroke="#CCCCCC" x1="0" y1="0" x2="-6" y2="0"/>
			<text transform="matrix(1 0 0 1 -22.9014 3.2002)" font-family="'ArialMT'" font-size="10">0.8</text>
		</g>
		<g transform="translate(0,481.25)">
			<line fill="none" stroke="#CCCCCC" x1="0" y1="0" x2="-6" y2="0"/>
			<text transform="matrix(1 0 0 1 -22.9014 3.2002)" font-family="'ArialMT'" font-size="10">1.0</text>
		</g>
		<g transform="translate(0,467.5)">
			<line fill="none" stroke="#CCCCCC" x1="0" y1="0" x2="-6" y2="0"/>
			<text transform="matrix(1 0 0 1 -22.9014 3.2002)" font-family="'ArialMT'" font-size="10">1.2</text>
		</g>
		<g transform="translate(0,453.75)">
			<line fill="none" stroke="#CCCCCC" x1="0" y1="0" x2="-6" y2="0"/>
			<text transform="matrix(1 0 0 1 -22.9014 3.2002)" font-family="'ArialMT'" font-size="10">1.4</text>
		</g>
		<g transform="translate(0,440)">
			<line fill="none" stroke="#CCCCCC" x1="0" y1="0" x2="-6" y2="0"/>
			<text transform="matrix(1 0 0 1 -22.9014 3.2002)" font-family="'ArialMT'" font-size="10">1.6</text>
		</g>
		<g transform="translate(0,426.25)">
			<line fill="none" stroke="#CCCCCC" x1="0" y1="0" x2="-6" y2="0"/>
			<text transform="matrix(1 0 0 1 -22.9014 3.2002)" font-family="'ArialMT'" font-size="10">1.8</text>
		</g>
		<g transform="translate(0,412.5)">
			<line fill="none" stroke="#CCCCCC" x1="0" y1="0" x2="-6" y2="0"/>
			<text transform="matrix(1 0 0 1 -22.9014 3.2002)" font-family="'ArialMT'" font-size="10">2.0</text>
		</g>
		<g transform="translate(0,398.75)">
			<line fill="none" stroke="#CCCCCC" x1="0" y1="0" x2="-6" y2="0"/>
			<text transform="matrix(1 0 0 1 -22.9014 3.2002)" font-family="'ArialMT'" font-size="10">2.2</text>
		</g>
		<g transform="translate(0,385)">
			<line fill="none" stroke="#CCCCCC" x1="0" y1="0" x2="-6" y2="0"/>
			<text transform="matrix(1 0 0 1 -22.9014 3.2002)" font-family="'ArialMT'" font-size="10">2.4</text>
		</g>
		<g transform="translate(0,371.25)">
			<line fill="none" stroke="#CCCCCC" x1="0" y1="0" x2="-6" y2="0"/>
			<text transform="matrix(1 0 0 1 -22.9014 3.2002)" font-family="'ArialMT'" font-size="10">2.6</text>
		</g>
		<g transform="translate(0,357.5)">
			<line fill="none" stroke="#CCCCCC" x1="0" y1="0" x2="-6" y2="0"/>
			<text transform="matrix(1 0 0 1 -22.9014 3.2002)" font-family="'ArialMT'" font-size="10">2.8</text>
		</g>
		<g transform="translate(0,343.75)">
			<line fill="none" stroke="#CCCCCC" x1="0" y1="0" x2="-6" y2="0"/>
			<text transform="matrix(1 0 0 1 -22.9014 3.2002)" font-family="'ArialMT'" font-size="10">3.0</text>
		</g>
		<g transform="translate(0,330)">
			<line fill="none" stroke="#CCCCCC" x1="0" y1="0" x2="-6" y2="0"/>
			<text transform="matrix(1 0 0 1 -22.9014 3.2002)" font-family="'ArialMT'" font-size="10">3.2</text>
		</g>
		<g transform="translate(0,316.25)">
			<line fill="none" stroke="#CCCCCC" x1="0" y1="0" x2="-6" y2="0"/>
			<text transform="matrix(1 0 0 1 -22.9014 3.2002)" font-family="'ArialMT'" font-size="10">3.4</text>
		</g>
		<g transform="translate(0,302.5)">
			<line fill="none" stroke="#CCCCCC" x1="0" y1="0" x2="-6" y2="0"/>
			<text transform="matrix(1 0 0 1 -22.9014 3.2002)" font-family="'ArialMT'" font-size="10">3.6</text>
		</g>
		<g transform="translate(0,288.75)">
			<line fill="none" stroke="#CCCCCC" x1="0" y1="0" x2="-6" y2="0"/>
			<text transform="matrix(1 0 0 1 -22.9014 3.2002)" font-family="'ArialMT'" font-size="10">3.8</text>
		</g>
		<g transform="translate(0,275)">
			<line fill="none" stroke="#CCCCCC" x1="0" y1="0" x2="-6" y2="0"/>
			<text transform="matrix(1 0 0 1 -22.9014 3.2002)" font-family="'ArialMT'" font-size="10">4.0</text>
		</g>
		<g transform="translate(0,261.25)">
			<line fill="none" stroke="#CCCCCC" x1="0" y1="0" x2="-6" y2="0"/>
			<text transform="matrix(1 0 0 1 -22.9014 3.2002)" font-family="'ArialMT'" font-size="10">4.2</text>
		</g>
		<g transform="translate(0,247.49999999999997)">
			<line fill="none" stroke="#CCCCCC" x1="0" y1="0" x2="-6" y2="0"/>
			<text transform="matrix(1 0 0 1 -22.9014 3.2002)" font-family="'ArialMT'" font-size="10">4.4</text>
		</g>
		<g transform="translate(0,233.75000000000003)">
			<line fill="none" stroke="#CCCCCC" x1="0" y1="0" x2="-6" y2="0"/>
			<text transform="matrix(1 0 0 1 -22.9014 3.2002)" font-family="'ArialMT'" font-size="10">4.6</text>
		</g>
		<g transform="translate(0,220)">
			<line fill="none" stroke="#CCCCCC" x1="0" y1="0" x2="-6" y2="0"/>
			<text transform="matrix(1 0 0 1 -22.9014 3.2002)" font-family="'ArialMT'" font-size="10">4.8</text>
		</g>
		<g transform="translate(0,206.25)">
			<line fill="none" stroke="#CCCCCC" x1="0" y1="0" x2="-6" y2="0"/>
			<text transform="matrix(1 0 0 1 -22.9014 3.2002)" font-family="'ArialMT'" font-size="10">5.0</text>
		</g>
		<g transform="translate(0,192.5)">
			<line fill="none" stroke="#CCCCCC" x1="0" y1="0" x2="-6" y2="0"/>
			<text transform="matrix(1 0 0 1 -22.9014 3.2002)" font-family="'ArialMT'" font-size="10">5.2</text>
		</g>
		<g transform="translate(0,178.74999999999997)">
			<line fill="none" stroke="#CCCCCC" x1="0" y1="0" x2="-6" y2="0"/>
			<text transform="matrix(1 0 0 1 -22.9014 3.2002)" font-family="'ArialMT'" font-size="10">5.4</text>
		</g>
		<g transform="translate(0,165.00000000000003)">
			<line fill="none" stroke="#CCCCCC" x1="0" y1="0" x2="-6" y2="0"/>
			<text transform="matrix(1 0 0 1 -22.9014 3.2002)" font-family="'ArialMT'" font-size="10">5.6</text>
		</g>
		<g transform="translate(0,151.25)">
			<line fill="none" stroke="#CCCCCC" x1="0" y1="0" x2="-6" y2="0"/>
			<text transform="matrix(1 0 0 1 -22.9014 3.2002)" font-family="'ArialMT'" font-size="10">5.8</text>
		</g>
		<g transform="translate(0,137.5)">
			<line fill="none" stroke="#CCCCCC" x1="0" y1="0" x2="-6" y2="0"/>
			<text transform="matrix(1 0 0 1 -22.9014 3.2002)" font-family="'ArialMT'" font-size="10">6.0</text>
		</g>
		<g transform="translate(0,123.74999999999999)">
			<line fill="none" stroke="#CCCCCC" x1="0" y1="0" x2="-6" y2="0"/>
			<text transform="matrix(1 0 0 1 -22.9014 3.2002)" font-family="'ArialMT'" font-size="10">6.2</text>
		</g>
		<g transform="translate(0,109.99999999999997)">
			<line fill="none" stroke="#CCCCCC" x1="0" y1="0" x2="-6" y2="0"/>
			<text transform="matrix(1 0 0 1 -22.9014 3.2002)" font-family="'ArialMT'" font-size="10">6.4</text>
		</g>
		<g transform="translate(0,96.25000000000003)">
			<line fill="none" stroke="#CCCCCC" x1="0" y1="0" x2="-6" y2="0"/>
			<text transform="matrix(1 0 0 1 -22.9014 3.2002)" font-family="'ArialMT'" font-size="10">6.6</text>
		</g>
		<g transform="translate(0,82.50000000000001)">
			<line fill="none" stroke="#CCCCCC" x1="0" y1="0" x2="-6" y2="0"/>
			<text transform="matrix(1 0 0 1 -22.9014 3.2002)" font-family="'ArialMT'" font-size="10">6.8</text>
		</g>
		<g transform="translate(0,68.75)">
			<line fill="none" stroke="#CCCCCC" x1="0" y1="0" x2="-6" y2="0"/>
			<text transform="matrix(1 0 0 1 -22.9014 3.2002)" font-family="'ArialMT'" font-size="10">7.0</text>
		</g>
		<g transform="translate(0,54.999999999999986)">
			<line fill="none" stroke="#CCCCCC" x1="0" y1="0" x2="-6" y2="0"/>
			<text transform="matrix(1 0 0 1 -22.9014 3.2002)" font-family="'ArialMT'" font-size="10">7.2</text>
		</g>
		<g transform="translate(0,41.24999999999998)">
			<line fill="none" stroke="#CCCCCC" x1="0" y1="0" x2="-6" y2="0"/>
			<text transform="matrix(1 0 0 1 -22.9014 3.2002)" font-family="'ArialMT'" font-size="10">7.4</text>
		</g>
		<g transform="translate(0,27.500000000000025)">
			<line fill="none" stroke="#CCCCCC" x1="0" y1="0" x2="-6" y2="0"/>
			<text transform="matrix(1 0 0 1 -22.9014 3.2002)" font-family="'ArialMT'" font-size="10">7.6</text>
		</g>
		<g transform="translate(0,13.750000000000012)">
			<line fill="none" stroke="#CCCCCC" x1="0" y1="0" x2="-6" y2="0"/>
			<text transform="matrix(1 0 0 1 -22.9014 3.2002)" font-family="'ArialMT'" font-size="10">7.8</text>
		</g>
		<g transform="translate(0,0)">
			<line fill="none" stroke="#CCCCCC" x1="0" y1="0" x2="-6" y2="0"/>
			<text transform="matrix(1 0 0 1 -22.9014 3.2002)" font-family="'ArialMT'" font-size="10">8.0</text>
		</g>
		<path fill="none" stroke="#CCCCCC" d="M-6,0h6v550h-6"/>
	</g>
	<rect x="4" fill="#BF6969" width="61" height="550"/>
	<rect x="72" y="68.75" fill="#BF9869" width="61" height="481.25"/>
	<rect x="140" y="137.5" fill="#B7BF69" width="61" height="412.5"/>
	<rect x="208" y="137.5" fill="#88BF69" width="61" height="412.5"/>
	<rect x="276" y="137.5" fill="#69BF79" width="61" height="412.5"/>
	<rect x="344" y="206.25" fill="#69BFA7" width="61" height="343.75"/>
	<rect x="412" y="206.25" fill="#69A7BF" width="61" height="343.75"/>
	<rect x="480" y="206.25" fill="#6979BF" width="61" height="343.75"/>
	<rect x="548" y="206.25" fill="#8869BF" width="61" height="343.75"/>
	<rect x="616" y="343.75" fill="#B769BF" width="61" height="206.25"/>
	<rect x="684" y="343.75" fill="#BF6998" width="61" height="206.25"/>
</g>
<g transform="translate(34.5,0)">
	<line fill="none" stroke="#CCCCCC" x1="50" y1="550" x2="50" y2="556"/>
	<text transform="matrix(1 0 0 1 24.7046 566.0996)" font-family="'ArialMT'" font-size="10">viaje/paseo</text>
</g>
<g transform="translate(102.5,0)">
	<line fill="none" stroke="#CCCCCC" x1="50" y1="550" x2="50" y2="556"/>
	<text transform="matrix(1 0 0 1 33.877 566.0996)" font-family="'ArialMT'" font-size="10">escape</text>
</g>
<g transform="translate(170.5,0)">
	<line fill="none" stroke="#CCCCCC" x1="50" y1="550" x2="50" y2="556"/>
	<text transform="matrix(1 0 0 1 31.6553 566.0996)" font-family="'ArialMT'" font-size="10">felicidad</text>
</g>
<g transform="translate(238.5,0)">
	<line fill="none" stroke="#CCCCCC" x1="50" y1="550" x2="50" y2="556"/>
	<text transform="matrix(1 0 0 1 10.2539 566.0996)" font-family="'ArialMT'" font-size="10">suenos/recuerdos</text>
</g>
<g transform="translate(306.5,0)">
	<line fill="none" stroke="#CCCCCC" x1="50" y1="566.1" x2="50" y2="572.1"/>
	<text transform="matrix(1 0 0 1 21.3745 582.1992)" font-family="'ArialMT'" font-size="10">Peligro/Caos</text>
</g>
<g transform="translate(374.5,0)">
	<line fill="none" stroke="#CCCCCC" x1="50" y1="550" x2="50" y2="556"/>
	<text transform="matrix(1 0 0 1 10.8203 566.0996)" font-family="'ArialMT'" font-size="10">oscuro/Misterioso</text>
</g>
<g transform="translate(442.5,0)">
	<line fill="none" stroke="#CCCCCC" x1="50" y1="566.1" x2="50" y2="572.1"/>
	<text transform="matrix(1 0 0 1 13.3125 582.1992)" font-family="'ArialMT'" font-size="10">cambio personal</text>
</g>
<g transform="translate(510.5,0)">
	<line fill="none" stroke="#CCCCCC" x1="50" y1="550" x2="50" y2="556"/>
	<text transform="matrix(1 0 0 1 13.0352 566.0996)" font-family="'ArialMT'" font-size="10">avance temporal</text>
</g>
<g transform="translate(578.5,0)">
	<line fill="none" stroke="#CCCCCC" x1="50" y1="566.1" x2="50" y2="572.1"/>
	<text transform="matrix(1 0 0 1 5.8125 582.1992)" font-family="'ArialMT'" font-size="10">Energia/Movimiento</text>
</g>
<g transform="translate(646.5,0)">
	<line fill="none" stroke="#CCCCCC" x1="50" y1="550" x2="50" y2="556"/>
	<text transform="matrix(1 0 0 1 0.7988 566.0996)" font-family="'ArialMT'" font-size="10">serenidad/tranquilidad</text>
</g>
<g transform="translate(714.5,0)">
	<line fill="none" stroke="#CCCCCC" x1="50" y1="566.1" x2="50" y2="572.1"/>
	<text transform="matrix(1 0 0 1 15.2588 582.1992)" font-family="'ArialMT'" font-size="10">cambio a calido</text>
</g>
<path fill="none" stroke="#CCCCCC" d="M50,556v-6h750v6"/>
</svg>
