<svg width="800" height="600" xmlns="http://www.w3.org/2000/svg" version="1.1"><g transform="translate(50,0)"><text x="-50" y="-7" style="font-size: 10px; font-family: Arial, Helvetica;">null</text><g class="y axis" transform="translate(0,0)" style="font-size: 10px; font-family: Arial, Helvetica;"><g class="tick" transform="translate(0,550)" style="opacity: 1;"><line x2="-6" y2="0" style="shape-rendering: crispEdges; fill: none; stroke: rgb(204, 204, 204);"></line><text dy=".32em" x="-9" y="0" style="text-anchor: end;">0.0</text></g><g class="tick" transform="translate(0,527.0833333333334)" style="opacity: 1;"><line x2="-6" y2="0" style="shape-rendering: crispEdges; fill: none; stroke: rgb(204, 204, 204);"></line><text dy=".32em" x="-9" y="0" style="text-anchor: end;">0.5</text></g><g class="tick" transform="translate(0,504.16666666666663)" style="opacity: 1;"><line x2="-6" y2="0" style="shape-rendering: crispEdges; fill: none; stroke: rgb(204, 204, 204);"></line><text dy=".32em" x="-9" y="0" style="text-anchor: end;">1.0</text></g><g class="tick" transform="translate(0,481.25)" style="opacity: 1;"><line x2="-6" y2="0" style="shape-rendering: crispEdges; fill: none; stroke: rgb(204, 204, 204);"></line><text dy=".32em" x="-9" y="0" style="text-anchor: end;">1.5</text></g><g class="tick" transform="translate(0,458.33333333333337)" style="opacity: 1;"><line x2="-6" y2="0" style="shape-rendering: crispEdges; fill: none; stroke: rgb(204, 204, 204);"></line><text dy=".32em" x="-9" y="0" style="text-anchor: end;">2.0</text></g><g class="tick" transform="translate(0,435.41666666666663)" style="opacity: 1;"><line x2="-6" y2="0" style="shape-rendering: crispEdges; fill: none; stroke: rgb(204, 204, 204);"></line><text dy=".32em" x="-9" y="0" style="text-anchor: end;">2.5</text></g><g class="tick" transform="translate(0,412.5)" style="opacity: 1;"><line x2="-6" y2="0" style="shape-rendering: crispEdges; fill: none; stroke: rgb(204, 204, 204);"></line><text dy=".32em" x="-9" y="0" style="text-anchor: end;">3.0</text></g><g class="tick" transform="translate(0,389.5833333333333)" style="opacity: 1;"><line x2="-6" y2="0" style="shape-rendering: crispEdges; fill: none; stroke: rgb(204, 204, 204);"></line><text dy=".32em" x="-9" y="0" style="text-anchor: end;">3.5</text></g><g class="tick" transform="translate(0,366.6666666666667)" style="opacity: 1;"><line x2="-6" y2="0" style="shape-rendering: crispEdges; fill: none; stroke: rgb(204, 204, 204);"></line><text dy=".32em" x="-9" y="0" style="text-anchor: end;">4.0</text></g><g class="tick" transform="translate(0,343.75)" style="opacity: 1;"><line x2="-6" y2="0" style="shape-rendering: crispEdges; fill: none; stroke: rgb(204, 204, 204);"></line><text dy=".32em" x="-9" y="0" style="text-anchor: end;">4.5</text></g><g class="tick" transform="translate(0,320.8333333333333)" style="opacity: 1;"><line x2="-6" y2="0" style="shape-rendering: crispEdges; fill: none; stroke: rgb(204, 204, 204);"></line><text dy=".32em" x="-9" y="0" style="text-anchor: end;">5.0</text></g><g class="tick" transform="translate(0,297.9166666666667)" style="opacity: 1;"><line x2="-6" y2="0" style="shape-rendering: crispEdges; fill: none; stroke: rgb(204, 204, 204);"></line><text dy=".32em" x="-9" y="0" style="text-anchor: end;">5.5</text></g><g class="tick" transform="translate(0,275)" style="opacity: 1;"><line x2="-6" y2="0" style="shape-rendering: crispEdges; fill: none; stroke: rgb(204, 204, 204);"></line><text dy=".32em" x="-9" y="0" style="text-anchor: end;">6.0</text></g><g class="tick" transform="translate(0,252.08333333333334)" style="opacity: 1;"><line x2="-6" y2="0" style="shape-rendering: crispEdges; fill: none; stroke: rgb(204, 204, 204);"></line><text dy=".32em" x="-9" y="0" style="text-anchor: end;">6.5</text></g><g class="tick" transform="translate(0,229.16666666666666)" style="opacity: 1;"><line x2="-6" y2="0" style="shape-rendering: crispEdges; fill: none; stroke: rgb(204, 204, 204);"></line><text dy=".32em" x="-9" y="0" style="text-anchor: end;">7.0</text></g><g class="tick" transform="translate(0,206.25)" style="opacity: 1;"><line x2="-6" y2="0" style="shape-rendering: crispEdges; fill: none; stroke: rgb(204, 204, 204);"></line><text dy=".32em" x="-9" y="0" style="text-anchor: end;">7.5</text></g><g class="tick" transform="translate(0,183.33333333333334)" style="opacity: 1;"><line x2="-6" y2="0" style="shape-rendering: crispEdges; fill: none; stroke: rgb(204, 204, 204);"></line><text dy=".32em" x="-9" y="0" style="text-anchor: end;">8.0</text></g><g class="tick" transform="translate(0,160.41666666666666)" style="opacity: 1;"><line x2="-6" y2="0" style="shape-rendering: crispEdges; fill: none; stroke: rgb(204, 204, 204);"></line><text dy=".32em" x="-9" y="0" style="text-anchor: end;">8.5</text></g><g class="tick" transform="translate(0,137.5)" style="opacity: 1;"><line x2="-6" y2="0" style="shape-rendering: crispEdges; fill: none; stroke: rgb(204, 204, 204);"></line><text dy=".32em" x="-9" y="0" style="text-anchor: end;">9.0</text></g><g class="tick" transform="translate(0,114.58333333333336)" style="opacity: 1;"><line x2="-6" y2="0" style="shape-rendering: crispEdges; fill: none; stroke: rgb(204, 204, 204);"></line><text dy=".32em" x="-9" y="0" style="text-anchor: end;">9.5</text></g><g class="tick" transform="translate(0,91.66666666666664)" style="opacity: 1;"><line x2="-6" y2="0" style="shape-rendering: crispEdges; fill: none; stroke: rgb(204, 204, 204);"></line><text dy=".32em" x="-9" y="0" style="text-anchor: end;">10.0</text></g><g class="tick" transform="translate(0,68.75)" style="opacity: 1;"><line x2="-6" y2="0" style="shape-rendering: crispEdges; fill: none; stroke: rgb(204, 204, 204);"></line><text dy=".32em" x="-9" y="0" style="text-anchor: end;">10.5</text></g><g class="tick" transform="translate(0,45.83333333333336)" style="opacity: 1;"><line x2="-6" y2="0" style="shape-rendering: crispEdges; fill: none; stroke: rgb(204, 204, 204);"></line><text dy=".32em" x="-9" y="0" style="text-anchor: end;">11.0</text></g><g class="tick" transform="translate(0,22.916666666666647)" style="opacity: 1;"><line x2="-6" y2="0" style="shape-rendering: crispEdges; fill: none; stroke: rgb(204, 204, 204);"></line><text dy=".32em" x="-9" y="0" style="text-anchor: end;">11.5</text></g><g class="tick" transform="translate(0,0)" style="opacity: 1;"><line x2="-6" y2="0" style="shape-rendering: crispEdges; fill: none; stroke: rgb(204, 204, 204);"></line><text dy=".32em" x="-9" y="0" style="text-anchor: end;">12.0</text></g><path class="domain" d="M-6,0H0V550H-6" style="shape-rendering: crispEdges; fill: none; stroke: rgb(204, 204, 204);"></path></g><rect transform="translate(0,0)" class="bar" x="4" width="61" y="0" height="550" style="fill: rgb(191, 105, 105);"></rect><rect transform="translate(0,0)" class="bar" x="72" width="61" y="91.66666666666664" height="458.33333333333337" style="fill: rgb(230, 138, 245);"></rect><rect transform="translate(0,0)" class="bar" x="140" width="61" y="275" height="275" style="fill: rgb(105, 124, 191);"></rect><rect transform="translate(0,0)" class="bar" x="208" width="61" y="275" height="275" style="fill: rgb(128, 103, 57);"></rect><rect transform="translate(0,0)" class="bar" x="276" width="61" y="275" height="275" style="fill: rgb(237, 150, 87);"></rect><rect transform="translate(0,0)" class="bar" x="344" width="61" y="320.8333333333333" height="229.16666666666669" style="fill: rgb(136, 72, 186);"></rect><rect transform="translate(0,0)" class="bar" x="412" width="61" y="412.5" height="137.5" style="fill: rgb(145, 145, 145);"></rect><rect transform="translate(0,0)" class="bar" x="480" width="61" y="412.5" height="137.5" style="fill: rgb(219, 219, 219);"></rect><rect transform="translate(0,0)" class="bar" x="548" width="61" y="458.33333333333337" height="91.66666666666663" style="fill: rgb(0, 0, 0);"></rect><rect transform="translate(0,0)" class="bar" x="616" width="61" y="458.33333333333337" height="91.66666666666663" style="fill: rgb(82, 207, 94);"></rect><rect transform="translate(0,0)" class="bar" x="684" width="61" y="504.16666666666663" height="45.83333333333337" style="fill: rgb(96, 188, 217);"></rect></g><g class="x axis" transform="translate(50,550)" style="font-size: 10px; font-family: Arial, Helvetica;"><g class="tick" transform="translate(34.5,0)" style="opacity: 1;"><line y2="6" x2="0" style="shape-rendering: crispEdges; fill: none; stroke: rgb(204, 204, 204);"></line><text dy=".71em" y="9" x="0" style="text-anchor: middle;">rojo</text></g><g class="tick" transform="translate(102.5,0)" style="opacity: 1;"><line y2="6" x2="0" style="shape-rendering: crispEdges; fill: none; stroke: rgb(204, 204, 204);"></line><text dy=".71em" y="9" x="0" style="text-anchor: middle;">rosa</text></g><g class="tick" transform="translate(170.5,0)" style="opacity: 1;"><line y2="6" x2="0" style="shape-rendering: crispEdges; fill: none; stroke: rgb(204, 204, 204);"></line><text dy=".71em" y="9" x="0" style="text-anchor: middle;">azul</text></g><g class="tick" transform="translate(238.5,0)" style="opacity: 1;"><line y2="6" x2="0" style="shape-rendering: crispEdges; fill: none; stroke: rgb(204, 204, 204);"></line><text dy=".71em" y="9" x="0" style="text-anchor: middle;">caje</text></g><g class="tick" transform="translate(306.5,0)" style="opacity: 1;"><line y2="6" x2="0" style="shape-rendering: crispEdges; fill: none; stroke: rgb(204, 204, 204);"></line><text dy=".71em" y="9" x="0" style="text-anchor: middle;">naranjo</text></g><g class="tick" transform="translate(374.5,0)" style="opacity: 1;"><line y2="6" x2="0" style="shape-rendering: crispEdges; fill: none; stroke: rgb(204, 204, 204);"></line><text dy=".71em" y="9" x="0" style="text-anchor: middle;">morado</text></g><g class="tick" transform="translate(442.5,0)" style="opacity: 1;"><line y2="6" x2="0" style="shape-rendering: crispEdges; fill: none; stroke: rgb(204, 204, 204);"></line><text dy=".71em" y="9" x="0" style="text-anchor: middle;">gris</text></g><g class="tick" transform="translate(510.5,0)" style="opacity: 1;"><line y2="6" x2="0" style="shape-rendering: crispEdges; fill: none; stroke: rgb(204, 204, 204);"></line><text dy=".71em" y="9" x="0" style="text-anchor: middle;">blanco</text></g><g class="tick" transform="translate(578.5,0)" style="opacity: 1;"><line y2="6" x2="0" style="shape-rendering: crispEdges; fill: none; stroke: rgb(204, 204, 204);"></line><text dy=".71em" y="9" x="0" style="text-anchor: middle;">negro</text></g><g class="tick" transform="translate(646.5,0)" style="opacity: 1;"><line y2="6" x2="0" style="shape-rendering: crispEdges; fill: none; stroke: rgb(204, 204, 204);"></line><text dy=".71em" y="9" x="0" style="text-anchor: middle;">verde</text></g><g class="tick" transform="translate(714.5,0)" style="opacity: 1;"><line y2="6" x2="0" style="shape-rendering: crispEdges; fill: none; stroke: rgb(204, 204, 204);"></line><text dy=".71em" y="9" x="0" style="text-anchor: middle;">cyan</text></g><path class="domain" d="M0,6V0H750V6" style="shape-rendering: crispEdges; fill: none; stroke: rgb(204, 204, 204);"></path></g></svg>