<?xml version="1.0" encoding="utf-8"?>
<!-- Generator: Adobe Illustrator 16.0.0, SVG Export Plug-In . SVG Version: 6.00 Build 0)  -->
<!DOCTYPE svg PUBLIC "-//W3C//DTD SVG 1.1//EN" "http://www.w3.org/Graphics/SVG/1.1/DTD/svg11.dtd">
<svg version="1.1" id="Layer_1" xmlns="http://www.w3.org/2000/svg" xmlns:xlink="http://www.w3.org/1999/xlink" x="0px" y="0px"
	 width="800px" height="600px" viewBox="0 0 800 600" enable-background="new 0 0 800 600" xml:space="preserve">
<g>
	<g transform="translate(50,0)">
		<text transform="matrix(1 0 0 1 -50 -7)" font-family="'ArialMT'" font-size="10">null</text>
		<g transform="translate(0,0)">
			<g transform="translate(0,550)">
				<line fill="none" stroke="#CCCCCC" x1="0" y1="0" x2="-6" y2="0"/>
				<text transform="matrix(1 0 0 1 -22.9014 3.2002)" font-family="'ArialMT'" font-size="10">0.0</text>
			</g>
			<g transform="translate(0,532.8125)">
				<line fill="none" stroke="#CCCCCC" x1="0" y1="0" x2="-6" y2="0"/>
				<text transform="matrix(1 0 0 1 -22.9014 3.2002)" font-family="'ArialMT'" font-size="10">0.5</text>
			</g>
			<g transform="translate(0,515.625)">
				<line fill="none" stroke="#CCCCCC" x1="0" y1="0" x2="-6" y2="0"/>
				<text transform="matrix(1 0 0 1 -22.9014 3.2002)" font-family="'ArialMT'" font-size="10">1.0</text>
			</g>
			<g transform="translate(0,498.4375)">
				<line fill="none" stroke="#CCCCCC" x1="0" y1="0" x2="-6" y2="0"/>
				<text transform="matrix(1 0 0 1 -22.9014 3.2002)" font-family="'ArialMT'" font-size="10">1.5</text>
			</g>
			<g transform="translate(0,481.25)">
				<line fill="none" stroke="#CCCCCC" x1="0" y1="0" x2="-6" y2="0"/>
				<text transform="matrix(1 0 0 1 -22.9014 3.2002)" font-family="'ArialMT'" font-size="10">2.0</text>
			</g>
			<g transform="translate(0,464.0625)">
				<line fill="none" stroke="#CCCCCC" x1="0" y1="0" x2="-6" y2="0"/>
				<text transform="matrix(1 0 0 1 -22.9014 3.2002)" font-family="'ArialMT'" font-size="10">2.5</text>
			</g>
			<g transform="translate(0,446.875)">
				<line fill="none" stroke="#CCCCCC" x1="0" y1="0" x2="-6" y2="0"/>
				<text transform="matrix(1 0 0 1 -22.9014 3.2002)" font-family="'ArialMT'" font-size="10">3.0</text>
			</g>
			<g transform="translate(0,429.6875)">
				<line fill="none" stroke="#CCCCCC" x1="0" y1="0" x2="-6" y2="0"/>
				<text transform="matrix(1 0 0 1 -22.9014 3.2002)" font-family="'ArialMT'" font-size="10">3.5</text>
			</g>
			<g transform="translate(0,412.5)">
				<line fill="none" stroke="#CCCCCC" x1="0" y1="0" x2="-6" y2="0"/>
				<text transform="matrix(1 0 0 1 -22.9014 3.2002)" font-family="'ArialMT'" font-size="10">4.0</text>
			</g>
			<g transform="translate(0,395.3125)">
				<line fill="none" stroke="#CCCCCC" x1="0" y1="0" x2="-6" y2="0"/>
				<text transform="matrix(1 0 0 1 -22.9014 3.2002)" font-family="'ArialMT'" font-size="10">4.5</text>
			</g>
			<g transform="translate(0,378.125)">
				<line fill="none" stroke="#CCCCCC" x1="0" y1="0" x2="-6" y2="0"/>
				<text transform="matrix(1 0 0 1 -22.9014 3.2002)" font-family="'ArialMT'" font-size="10">5.0</text>
			</g>
			<g transform="translate(0,360.9375)">
				<line fill="none" stroke="#CCCCCC" x1="0" y1="0" x2="-6" y2="0"/>
				<text transform="matrix(1 0 0 1 -22.9014 3.2002)" font-family="'ArialMT'" font-size="10">5.5</text>
			</g>
			<g transform="translate(0,343.75)">
				<line fill="none" stroke="#CCCCCC" x1="0" y1="0" x2="-6" y2="0"/>
				<text transform="matrix(1 0 0 1 -22.9014 3.2002)" font-family="'ArialMT'" font-size="10">6.0</text>
			</g>
			<g transform="translate(0,326.5625)">
				<line fill="none" stroke="#CCCCCC" x1="0" y1="0" x2="-6" y2="0"/>
				<text transform="matrix(1 0 0 1 -22.9014 3.2002)" font-family="'ArialMT'" font-size="10">6.5</text>
			</g>
			<g transform="translate(0,309.375)">
				<line fill="none" stroke="#CCCCCC" x1="0" y1="0" x2="-6" y2="0"/>
				<text transform="matrix(1 0 0 1 -22.9014 3.2002)" font-family="'ArialMT'" font-size="10">7.0</text>
			</g>
			<g transform="translate(0,292.1875)">
				<line fill="none" stroke="#CCCCCC" x1="0" y1="0" x2="-6" y2="0"/>
				<text transform="matrix(1 0 0 1 -22.9014 3.2002)" font-family="'ArialMT'" font-size="10">7.5</text>
			</g>
			<g transform="translate(0,275)">
				<line fill="none" stroke="#CCCCCC" x1="0" y1="0" x2="-6" y2="0"/>
				<text transform="matrix(1 0 0 1 -22.9014 3.2002)" font-family="'ArialMT'" font-size="10">8.0</text>
			</g>
			<g transform="translate(0,257.8125)">
				<line fill="none" stroke="#CCCCCC" x1="0" y1="0" x2="-6" y2="0"/>
				<text transform="matrix(1 0 0 1 -22.9014 3.2002)" font-family="'ArialMT'" font-size="10">8.5</text>
			</g>
			<g transform="translate(0,240.625)">
				<line fill="none" stroke="#CCCCCC" x1="0" y1="0" x2="-6" y2="0"/>
				<text transform="matrix(1 0 0 1 -22.9014 3.2002)" font-family="'ArialMT'" font-size="10">9.0</text>
			</g>
			<g transform="translate(0,223.4375)">
				<line fill="none" stroke="#CCCCCC" x1="0" y1="0" x2="-6" y2="0"/>
				<text transform="matrix(1 0 0 1 -22.9014 3.2002)" font-family="'ArialMT'" font-size="10">9.5</text>
			</g>
			<g transform="translate(0,206.25)">
				<line fill="none" stroke="#CCCCCC" x1="0" y1="0" x2="-6" y2="0"/>
				<text transform="matrix(1 0 0 1 -28.4629 3.2002)" font-family="'ArialMT'" font-size="10">10.0</text>
			</g>
			<g transform="translate(0,189.0625)">
				<line fill="none" stroke="#CCCCCC" x1="0" y1="0" x2="-6" y2="0"/>
				<text transform="matrix(1 0 0 1 -28.4629 3.2002)" font-family="'ArialMT'" font-size="10">10.5</text>
			</g>
			<g transform="translate(0,171.875)">
				<line fill="none" stroke="#CCCCCC" x1="0" y1="0" x2="-6" y2="0"/>
				<text transform="matrix(1 0 0 1 -27.7207 3.2002)" font-family="'ArialMT'" font-size="10">11.0</text>
			</g>
			<g transform="translate(0,154.6875)">
				<line fill="none" stroke="#CCCCCC" x1="0" y1="0" x2="-6" y2="0"/>
				<text transform="matrix(1 0 0 1 -27.7207 3.2002)" font-family="'ArialMT'" font-size="10">11.5</text>
			</g>
			<g transform="translate(0,137.5)">
				<line fill="none" stroke="#CCCCCC" x1="0" y1="0" x2="-6" y2="0"/>
				<text transform="matrix(1 0 0 1 -28.4629 3.2002)" font-family="'ArialMT'" font-size="10">12.0</text>
			</g>
			<g transform="translate(0,120.3125)">
				<line fill="none" stroke="#CCCCCC" x1="0" y1="0" x2="-6" y2="0"/>
				<text transform="matrix(1 0 0 1 -28.4629 3.2002)" font-family="'ArialMT'" font-size="10">12.5</text>
			</g>
			<g transform="translate(0,103.125)">
				<line fill="none" stroke="#CCCCCC" x1="0" y1="0" x2="-6" y2="0"/>
				<text transform="matrix(1 0 0 1 -28.4629 3.2002)" font-family="'ArialMT'" font-size="10">13.0</text>
			</g>
			<g transform="translate(0,85.9375)">
				<line fill="none" stroke="#CCCCCC" x1="0" y1="0" x2="-6" y2="0"/>
				<text transform="matrix(1 0 0 1 -28.4629 3.2002)" font-family="'ArialMT'" font-size="10">13.5</text>
			</g>
			<g transform="translate(0,68.75)">
				<line fill="none" stroke="#CCCCCC" x1="0" y1="0" x2="-6" y2="0"/>
				<text transform="matrix(1 0 0 1 -28.4629 3.2002)" font-family="'ArialMT'" font-size="10">14.0</text>
			</g>
			<g transform="translate(0,51.5625)">
				<line fill="none" stroke="#CCCCCC" x1="0" y1="0" x2="-6" y2="0"/>
				<text transform="matrix(1 0 0 1 -28.4629 3.2002)" font-family="'ArialMT'" font-size="10">14.5</text>
			</g>
			<g transform="translate(0,34.375)">
				<line fill="none" stroke="#CCCCCC" x1="0" y1="0" x2="-6" y2="0"/>
				<text transform="matrix(1 0 0 1 -28.4629 3.2002)" font-family="'ArialMT'" font-size="10">15.0</text>
			</g>
			<g transform="translate(0,17.1875)">
				<line fill="none" stroke="#CCCCCC" x1="0" y1="0" x2="-6" y2="0"/>
				<text transform="matrix(1 0 0 1 -28.4629 3.2002)" font-family="'ArialMT'" font-size="10">15.5</text>
			</g>
			<g transform="translate(0,0)">
				<line fill="none" stroke="#CCCCCC" x1="0" y1="0" x2="-6" y2="0"/>
				<text transform="matrix(1 0 0 1 -28.4629 3.2002)" font-family="'ArialMT'" font-size="10">16.0</text>
			</g>
			<path fill="none" stroke="#CCCCCC" d="M-6,0h6v550h-6"/>
		</g>
		<rect x="2" fill="#7E80A3" width="97" height="550"/>
		<rect x="110" y="240.625" fill="#948D5F" width="97" height="309.375"/>
		<rect x="218" y="275" fill="#82BF69" width="97" height="275"/>
		<rect x="326" y="309.375" fill="#DB7171" width="97" height="240.625"/>
		<rect x="434" y="309.375" fill="#699ABF" width="97" height="240.625"/>
		<rect x="542" y="412.5" fill="#8269BF" width="97" height="137.5"/>
		<rect x="650" y="446.875" fill="#BF69B3" width="97" height="103.125"/>
	</g>
	<g transform="translate(50.5,0)">
		<line fill="none" stroke="#CCCCCC" x1="50" y1="550" x2="50" y2="556"/>
		<text transform="matrix(1 0 0 1 -14.7559 566.0996)" font-family="'ArialMT'" font-size="10">melancolia/depresion/tristeza</text>
	</g>
	<g transform="translate(158.5,0)">
		<line fill="none" stroke="#CCCCCC" x1="50" y1="562.333" x2="50" y2="568.333"/>
		<text transform="matrix(1 0 0 1 8.8501 578.4326)" font-family="'ArialMT'" font-size="10">soledad/abandono</text>
	</g>
	<g transform="translate(266.5,0)">
		<line fill="none" stroke="#CCCCCC" x1="50" y1="550" x2="50" y2="556"/>
		<text transform="matrix(1 0 0 1 12.1924 566.0996)" font-family="'ArialMT'" font-size="10">nostalgia/pasado</text>
	</g>
	<g transform="translate(374.5,0)">
		<line fill="none" stroke="#CCCCCC" x1="50" y1="550" x2="50" y2="556"/>
		<text transform="matrix(1 0 0 1 6.3599 566.0996)" font-family="'ArialMT'" font-size="10">paisaje apocaliptico</text>
	</g>
	<g transform="translate(482.5,0)">
		<line fill="none" stroke="#CCCCCC" x1="50" y1="550" x2="50" y2="556"/>
		<text transform="matrix(1 0 0 1 43.0547 566.0996)" font-family="'ArialMT'" font-size="10">frio</text>
	</g>
	<g transform="translate(590.5,0)">
		<line fill="none" stroke="#CCCCCC" x1="50" y1="550" x2="50" y2="556"/>
		<text transform="matrix(1 0 0 1 -16.4336 566.0996)" font-family="'ArialMT'" font-size="10">estres/intranquilidad/inquietud</text>
	</g>
	<g transform="translate(698.5,0)">
		<line fill="none" stroke="#CCCCCC" x1="50" y1="550" x2="50" y2="556"/>
		<text transform="matrix(1 0 0 1 36.3818 566.0996)" font-family="'ArialMT'" font-size="10">locura</text>
	</g>
	<path fill="none" stroke="#CCCCCC" d="M50,556v-6h750v6"/>
</g>
</svg>
