<?xml version="1.0" encoding="utf-8"?>
<!-- Generator: Adobe Illustrator 16.0.0, SVG Export Plug-In . SVG Version: 6.00 Build 0)  -->
<!DOCTYPE svg PUBLIC "-//W3C//DTD SVG 1.1//EN" "http://www.w3.org/Graphics/SVG/1.1/DTD/svg11.dtd">
<svg version="1.1" id="Layer_1" xmlns="http://www.w3.org/2000/svg" xmlns:xlink="http://www.w3.org/1999/xlink" x="0px" y="0px"
	 width="800px" height="600px" viewBox="0 0 800 600" enable-background="new 0 0 800 600" xml:space="preserve">
<g>
	<g transform="translate(50,0)">
		<text transform="matrix(1 0 0 1 -50 -7)" font-family="'ArialMT'" font-size="10">null</text>
		<g transform="translate(0,0)">
			<g transform="translate(0,550)">
				<line fill="none" stroke="#CCCCCC" x1="0" y1="0" x2="-6" y2="0"/>
				<text transform="matrix(1 0 0 1 -14.5615 3.2002)" font-family="'ArialMT'" font-size="10">0</text>
			</g>
			<g transform="translate(0,529.6296296296297)">
				<line fill="none" stroke="#CCCCCC" x1="0" y1="0" x2="-6" y2="0"/>
				<text transform="matrix(1 0 0 1 -14.5615 3.2004)" font-family="'ArialMT'" font-size="10">1</text>
			</g>
			<g transform="translate(0,509.25925925925924)">
				<line fill="none" stroke="#CCCCCC" x1="0" y1="0" x2="-6" y2="0"/>
				<text transform="matrix(1 0 0 1 -14.5615 3.1997)" font-family="'ArialMT'" font-size="10">2</text>
			</g>
			<g transform="translate(0,488.88888888888886)">
				<line fill="none" stroke="#CCCCCC" x1="0" y1="0" x2="-6" y2="0"/>
				<text transform="matrix(1 0 0 1 -14.5615 3.2)" font-family="'ArialMT'" font-size="10">3</text>
			</g>
			<g transform="translate(0,468.51851851851853)">
				<line fill="none" stroke="#CCCCCC" x1="0" y1="0" x2="-6" y2="0"/>
				<text transform="matrix(1 0 0 1 -14.5615 3.2002)" font-family="'ArialMT'" font-size="10">4</text>
			</g>
			<g transform="translate(0,448.1481481481482)">
				<line fill="none" stroke="#CCCCCC" x1="0" y1="0" x2="-6" y2="0"/>
				<text transform="matrix(1 0 0 1 -14.5615 3.2005)" font-family="'ArialMT'" font-size="10">5</text>
			</g>
			<g transform="translate(0,427.77777777777777)">
				<line fill="none" stroke="#CCCCCC" x1="0" y1="0" x2="-6" y2="0"/>
				<text transform="matrix(1 0 0 1 -14.5615 3.1998)" font-family="'ArialMT'" font-size="10">6</text>
			</g>
			<g transform="translate(0,407.4074074074074)">
				<line fill="none" stroke="#CCCCCC" x1="0" y1="0" x2="-6" y2="0"/>
				<text transform="matrix(1 0 0 1 -14.5615 3.2)" font-family="'ArialMT'" font-size="10">7</text>
			</g>
			<g transform="translate(0,387.03703703703707)">
				<line fill="none" stroke="#CCCCCC" x1="0" y1="0" x2="-6" y2="0"/>
				<text transform="matrix(1 0 0 1 -14.5615 3.2003)" font-family="'ArialMT'" font-size="10">8</text>
			</g>
			<g transform="translate(0,366.6666666666667)">
				<line fill="none" stroke="#CCCCCC" x1="0" y1="-0.001" x2="-6" y2="-0.001"/>
				<text transform="matrix(1 0 0 1 -14.5615 3.1996)" font-family="'ArialMT'" font-size="10">9</text>
			</g>
			<g transform="translate(0,346.2962962962963)">
				<line fill="none" stroke="#CCCCCC" x1="0" y1="0.001" x2="-6" y2="0.001"/>
				<text transform="matrix(1 0 0 1 -20.123 3.1998)" font-family="'ArialMT'" font-size="10">10</text>
			</g>
			<g transform="translate(0,325.9259259259259)">
				<line fill="none" stroke="#CCCCCC" x1="0" y1="0" x2="-6" y2="0"/>
				<text transform="matrix(1 0 0 1 -19.3809 3.2)" font-family="'ArialMT'" font-size="10">11</text>
			</g>
			<g transform="translate(0,305.55555555555554)">
				<line fill="none" stroke="#CCCCCC" x1="0" y1="0" x2="-6" y2="0"/>
				<text transform="matrix(1 0 0 1 -20.123 3.2003)" font-family="'ArialMT'" font-size="10">12</text>
			</g>
			<g transform="translate(0,285.1851851851852)">
				<line fill="none" stroke="#CCCCCC" x1="0" y1="0" x2="-6" y2="0"/>
				<text transform="matrix(1 0 0 1 -20.123 3.1996)" font-family="'ArialMT'" font-size="10">13</text>
			</g>
			<g transform="translate(0,264.81481481481484)">
				<line fill="none" stroke="#CCCCCC" x1="0" y1="0" x2="-6" y2="0"/>
				<text transform="matrix(1 0 0 1 -20.123 3.1998)" font-family="'ArialMT'" font-size="10">14</text>
			</g>
			<g transform="translate(0,244.44444444444443)">
				<line fill="none" stroke="#CCCCCC" x1="0" y1="0" x2="-6" y2="0"/>
				<text transform="matrix(1 0 0 1 -20.123 3.2001)" font-family="'ArialMT'" font-size="10">15</text>
			</g>
			<g transform="translate(0,224.0740740740741)">
				<line fill="none" stroke="#CCCCCC" x1="0" y1="0" x2="-6" y2="0"/>
				<text transform="matrix(1 0 0 1 -20.123 3.2003)" font-family="'ArialMT'" font-size="10">16</text>
			</g>
			<g transform="translate(0,203.7037037037037)">
				<line fill="none" stroke="#CCCCCC" x1="0" y1="0" x2="-6" y2="0"/>
				<text transform="matrix(1 0 0 1 -20.123 3.1996)" font-family="'ArialMT'" font-size="10">17</text>
			</g>
			<g transform="translate(0,183.33333333333334)">
				<line fill="none" stroke="#CCCCCC" x1="0" y1="0" x2="-6" y2="0"/>
				<text transform="matrix(1 0 0 1 -20.123 3.1999)" font-family="'ArialMT'" font-size="10">18</text>
			</g>
			<g transform="translate(0,162.96296296296296)">
				<line fill="none" stroke="#CCCCCC" x1="0" y1="0" x2="-6" y2="0"/>
				<text transform="matrix(1 0 0 1 -20.123 3.2001)" font-family="'ArialMT'" font-size="10">19</text>
			</g>
			<g transform="translate(0,142.5925925925926)">
				<line fill="none" stroke="#CCCCCC" x1="0" y1="0" x2="-6" y2="0"/>
				<text transform="matrix(1 0 0 1 -20.123 3.2004)" font-family="'ArialMT'" font-size="10">20</text>
			</g>
			<g transform="translate(0,122.22222222222221)">
				<line fill="none" stroke="#CCCCCC" x1="0" y1="0" x2="-6" y2="0"/>
				<text transform="matrix(1 0 0 1 -20.123 3.1996)" font-family="'ArialMT'" font-size="10">21</text>
			</g>
			<g transform="translate(0,101.85185185185188)">
				<line fill="none" stroke="#CCCCCC" x1="0" y1="0" x2="-6" y2="0"/>
				<text transform="matrix(1 0 0 1 -20.123 3.1999)" font-family="'ArialMT'" font-size="10">22</text>
			</g>
			<g transform="translate(0,81.48148148148148)">
				<line fill="none" stroke="#CCCCCC" x1="0" y1="0" x2="-6" y2="0"/>
				<text transform="matrix(1 0 0 1 -20.123 3.2002)" font-family="'ArialMT'" font-size="10">23</text>
			</g>
			<g transform="translate(0,61.111111111111136)">
				<line fill="none" stroke="#CCCCCC" x1="0" y1="0" x2="-6" y2="0"/>
				<text transform="matrix(1 0 0 1 -20.123 3.2004)" font-family="'ArialMT'" font-size="10">24</text>
			</g>
			<g transform="translate(0,40.74074074074074)">
				<line fill="none" stroke="#CCCCCC" x1="0" y1="0" x2="-6" y2="0"/>
				<text transform="matrix(1 0 0 1 -20.123 3.1997)" font-family="'ArialMT'" font-size="10">25</text>
			</g>
			<g transform="translate(0,20.3703703703704)">
				<line fill="none" stroke="#CCCCCC" x1="0" y1="0" x2="-6" y2="0"/>
				<text transform="matrix(1 0 0 1 -20.123 3.2)" font-family="'ArialMT'" font-size="10">26</text>
			</g>
			<g transform="translate(0,0)">
				<line fill="none" stroke="#CCCCCC" x1="0" y1="0" x2="-6" y2="0"/>
				<text transform="matrix(1 0 0 1 -20.123 3.2002)" font-family="'ArialMT'" font-size="10">27</text>
			</g>
			<path fill="none" stroke="#CCCCCC" d="M-6,0h6v550h-6"/>
		</g>
		<rect x="2" fill="#592C2C" width="97" height="550"/>
		<rect x="110" y="244.444" fill="#E6D362" width="97" height="305.556"/>
		<rect x="218" y="285.185" fill="#C96262" width="97" height="264.815"/>
		<rect x="326" y="366.666" fill="#A85DCC" width="97" height="183.334"/>
		<rect x="434" y="448.148" fill="#9C9C9C" width="97" height="101.852"/>
		<rect x="542" y="468.519" fill="#6872D1" width="97" height="81.481"/>
		<rect x="650" y="488.889" fill="#8F346B" width="97" height="61.111"/>
	</g>
	<g transform="translate(50.5,0)">
		<line fill="none" stroke="#CCCCCC" x1="50" y1="550" x2="50" y2="556"/>
		<text transform="matrix(1 0 0 1 15.2515 566.0996)" font-family="'ArialMT'" font-size="10">pesadilla/sueño</text>
	</g>
	<g transform="translate(158.5,0)">
		<line fill="none" stroke="#CCCCCC" x1="50" y1="550" x2="50" y2="556"/>
		<text transform="matrix(1 0 0 1 21.9238 566.0996)" font-family="'ArialMT'" font-size="10">infancia/niño</text>
	</g>
	<g transform="translate(266.5,0)">
		<line fill="none" stroke="#CCCCCC" x1="50" y1="564.284" x2="50" y2="570.284"/>
		<text transform="matrix(1 0 0 1 -21.7017 580.3838)" font-family="'ArialMT'" font-size="10">destruccion/derrumbe/catastrofe</text>
	</g>
	<g transform="translate(374.5,0)">
		<line fill="none" stroke="#CCCCCC" x1="50" y1="550" x2="50" y2="556"/>
		<text transform="matrix(1 0 0 1 30.2656 566.0996)" font-family="'ArialMT'" font-size="10">recuerdo</text>
	</g>
	<g transform="translate(482.5,0)">
		<line fill="none" stroke="#CCCCCC" x1="50" y1="566.334" x2="50" y2="572.334"/>
		<text transform="matrix(1 0 0 1 8.8496 582.4336)" font-family="'ArialMT'" font-size="10">abandono/soledad</text>
	</g>
	<g transform="translate(590.5,0)">
		<line fill="none" stroke="#CCCCCC" x1="50" y1="550" x2="50" y2="556"/>
		<text transform="matrix(1 0 0 1 -9.7578 566.0996)" font-family="'ArialMT'" font-size="10">tristeza/depresion/angustia</text>
	</g>
	<g transform="translate(698.5,0)">
		<line fill="none" stroke="#CCCCCC" x1="50" y1="563.334" x2="50" y2="569.334"/>
		<text transform="matrix(1 0 0 1 -11.9844 579.4336)" font-family="'ArialMT'" font-size="10">desesperacion/atormentado</text>
	</g>
	<path fill="none" stroke="#CCCCCC" d="M50,556v-6h750v6"/>
</g>
</svg>
