<?xml version="1.0" encoding="utf-8"?>
<!-- Generator: Adobe Illustrator 16.0.0, SVG Export Plug-In . SVG Version: 6.00 Build 0)  -->
<!DOCTYPE svg PUBLIC "-//W3C//DTD SVG 1.1//EN" "http://www.w3.org/Graphics/SVG/1.1/DTD/svg11.dtd">
<svg version="1.1" id="Layer_1" xmlns="http://www.w3.org/2000/svg" xmlns:xlink="http://www.w3.org/1999/xlink" x="0px" y="0px"
	 width="800px" height="600px" viewBox="0 0 800 600" enable-background="new 0 0 800 600" xml:space="preserve">
<g transform="translate(50,0)">
	<text transform="matrix(1 0 0 1 -50 -7)" font-family="'ArialMT'" font-size="10">null</text>
	<g transform="translate(0,0)">
		<g transform="translate(0,550)">
			<line fill="none" stroke="#CCCCCC" x1="0" y1="0" x2="-6" y2="0"/>
			<text transform="matrix(1 0 0 1 -22.9014 3.2002)" font-family="'ArialMT'" font-size="10">0.0</text>
		</g>
		<g transform="translate(0,525)">
			<line fill="none" stroke="#CCCCCC" x1="0" y1="0" x2="-6" y2="0"/>
			<text transform="matrix(1 0 0 1 -22.9014 3.2002)" font-family="'ArialMT'" font-size="10">0.5</text>
		</g>
		<g transform="translate(0,500)">
			<line fill="none" stroke="#CCCCCC" x1="0" y1="0" x2="-6" y2="0"/>
			<text transform="matrix(1 0 0 1 -22.9014 3.2002)" font-family="'ArialMT'" font-size="10">1.0</text>
		</g>
		<g transform="translate(0,475)">
			<line fill="none" stroke="#CCCCCC" x1="0" y1="0" x2="-6" y2="0"/>
			<text transform="matrix(1 0 0 1 -22.9014 3.2002)" font-family="'ArialMT'" font-size="10">1.5</text>
		</g>
		<g transform="translate(0,449.99999999999994)">
			<line fill="none" stroke="#CCCCCC" x1="0" y1="0" x2="-6" y2="0"/>
			<text transform="matrix(1 0 0 1 -22.9014 3.2002)" font-family="'ArialMT'" font-size="10">2.0</text>
		</g>
		<g transform="translate(0,425)">
			<line fill="none" stroke="#CCCCCC" x1="0" y1="0" x2="-6" y2="0"/>
			<text transform="matrix(1 0 0 1 -22.9014 3.2002)" font-family="'ArialMT'" font-size="10">2.5</text>
		</g>
		<g transform="translate(0,400)">
			<line fill="none" stroke="#CCCCCC" x1="0" y1="0" x2="-6" y2="0"/>
			<text transform="matrix(1 0 0 1 -22.9014 3.2002)" font-family="'ArialMT'" font-size="10">3.0</text>
		</g>
		<g transform="translate(0,375.00000000000006)">
			<line fill="none" stroke="#CCCCCC" x1="0" y1="0" x2="-6" y2="0"/>
			<text transform="matrix(1 0 0 1 -22.9014 3.2002)" font-family="'ArialMT'" font-size="10">3.5</text>
		</g>
		<g transform="translate(0,350)">
			<line fill="none" stroke="#CCCCCC" x1="0" y1="0" x2="-6" y2="0"/>
			<text transform="matrix(1 0 0 1 -22.9014 3.2002)" font-family="'ArialMT'" font-size="10">4.0</text>
		</g>
		<g transform="translate(0,324.99999999999994)">
			<line fill="none" stroke="#CCCCCC" x1="0" y1="0" x2="-6" y2="0"/>
			<text transform="matrix(1 0 0 1 -22.9014 3.2002)" font-family="'ArialMT'" font-size="10">4.5</text>
		</g>
		<g transform="translate(0,300)">
			<line fill="none" stroke="#CCCCCC" x1="0" y1="0" x2="-6" y2="0"/>
			<text transform="matrix(1 0 0 1 -22.9014 3.2002)" font-family="'ArialMT'" font-size="10">5.0</text>
		</g>
		<g transform="translate(0,275)">
			<line fill="none" stroke="#CCCCCC" x1="0" y1="0" x2="-6" y2="0"/>
			<text transform="matrix(1 0 0 1 -22.9014 3.2002)" font-family="'ArialMT'" font-size="10">5.5</text>
		</g>
		<g transform="translate(0,250.00000000000003)">
			<line fill="none" stroke="#CCCCCC" x1="0" y1="0" x2="-6" y2="0"/>
			<text transform="matrix(1 0 0 1 -22.9014 3.2002)" font-family="'ArialMT'" font-size="10">6.0</text>
		</g>
		<g transform="translate(0,224.99999999999997)">
			<line fill="none" stroke="#CCCCCC" x1="0" y1="0" x2="-6" y2="0"/>
			<text transform="matrix(1 0 0 1 -22.9014 3.2002)" font-family="'ArialMT'" font-size="10">6.5</text>
		</g>
		<g transform="translate(0,200)">
			<line fill="none" stroke="#CCCCCC" x1="0" y1="0" x2="-6" y2="0"/>
			<text transform="matrix(1 0 0 1 -22.9014 3.2002)" font-family="'ArialMT'" font-size="10">7.0</text>
		</g>
		<g transform="translate(0,175.00000000000003)">
			<line fill="none" stroke="#CCCCCC" x1="0" y1="0" x2="-6" y2="0"/>
			<text transform="matrix(1 0 0 1 -22.9014 3.2002)" font-family="'ArialMT'" font-size="10">7.5</text>
		</g>
		<g transform="translate(0,150)">
			<line fill="none" stroke="#CCCCCC" x1="0" y1="0" x2="-6" y2="0"/>
			<text transform="matrix(1 0 0 1 -22.9014 3.2002)" font-family="'ArialMT'" font-size="10">8.0</text>
		</g>
		<g transform="translate(0,125.00000000000001)">
			<line fill="none" stroke="#CCCCCC" x1="0" y1="0" x2="-6" y2="0"/>
			<text transform="matrix(1 0 0 1 -22.9014 3.2002)" font-family="'ArialMT'" font-size="10">8.5</text>
		</g>
		<g transform="translate(0,99.99999999999997)">
			<line fill="none" stroke="#CCCCCC" x1="0" y1="0" x2="-6" y2="0"/>
			<text transform="matrix(1 0 0 1 -22.9014 3.2002)" font-family="'ArialMT'" font-size="10">9.0</text>
		</g>
		<g transform="translate(0,75)">
			<line fill="none" stroke="#CCCCCC" x1="0" y1="0" x2="-6" y2="0"/>
			<text transform="matrix(1 0 0 1 -22.9014 3.2002)" font-family="'ArialMT'" font-size="10">9.5</text>
		</g>
		<g transform="translate(0,50.000000000000014)">
			<line fill="none" stroke="#CCCCCC" x1="0" y1="0" x2="-6" y2="0"/>
			<text transform="matrix(1 0 0 1 -28.4629 3.2002)" font-family="'ArialMT'" font-size="10">10.0</text>
		</g>
		<g transform="translate(0,24.99999999999998)">
			<line fill="none" stroke="#CCCCCC" x1="0" y1="0" x2="-6" y2="0"/>
			<text transform="matrix(1 0 0 1 -28.4629 3.2002)" font-family="'ArialMT'" font-size="10">10.5</text>
		</g>
		<g transform="translate(0,0)">
			<line fill="none" stroke="#CCCCCC" x1="0" y1="0" x2="-6" y2="0"/>
			<text transform="matrix(1 0 0 1 -27.7207 3.2002)" font-family="'ArialMT'" font-size="10">11.0</text>
		</g>
		<path fill="none" stroke="#CCCCCC" d="M-6,0h6v550h-6"/>
	</g>
	<rect x="1" fill="#BF6969" width="76" height="550"/>
	<rect x="85" y="100" fill="#BFA269" width="76" height="450"/>
	<rect x="169" y="100" fill="#A2BF69" width="76" height="450"/>
	<rect x="253" y="150" fill="#69BF69" width="76" height="400"/>
	<rect x="337" y="250" fill="#69BFA2" width="76" height="300"/>
	<rect x="421" y="300" fill="#69A2BF" width="76" height="250"/>
	<rect x="505" y="350" fill="#6969BF" width="76" height="200"/>
	<rect x="589" y="350" fill="#A269BF" width="76" height="200"/>
	<rect x="673" y="350" fill="#BF69A2" width="76" height="200"/>
</g>
<g transform="translate(39,0)">
	<line fill="none" stroke="#CCCCCC" x1="50" y1="563" x2="50" y2="569"/>
	<text transform="matrix(1 0 0 1 -6.4233 579.0996)" font-family="'ArialMT'" font-size="10">infancia/juventud/amistad</text>
</g>
<g transform="translate(123,0)">
	<line fill="none" stroke="#CCCCCC" x1="50" y1="550" x2="50" y2="556"/>
	<text transform="matrix(1 0 0 1 -1.416 566.0996)" font-family="'ArialMT'" font-size="10">tristeza/angustia/miedo</text>
</g>
<g transform="translate(207,0)">
	<line fill="none" stroke="#CCCCCC" x1="50" y1="563" x2="50" y2="569"/>
	<text transform="matrix(1 0 0 1 4.9707 579.0996)" font-family="'ArialMT'" font-size="10">desesperacion/dolor</text>
</g>
<g transform="translate(291,0)">
	<line fill="none" stroke="#CCCCCC" x1="50" y1="550" x2="50" y2="556"/>
	<text transform="matrix(1 0 0 1 28.877 566.0996)" font-family="'ArialMT'" font-size="10">atardecer</text>
</g>
<g transform="translate(375,0)">
	<line fill="none" stroke="#CCCCCC" x1="50" y1="550" x2="50" y2="556"/>
	<text transform="matrix(1 0 0 1 1.9165 566.0996)" font-family="'ArialMT'" font-size="10">oscuridad/lugubre/frio</text>
</g>
<g transform="translate(459,0)">
	<line fill="none" stroke="#CCCCCC" x1="50" y1="550" x2="50" y2="556"/>
	<text transform="matrix(1 0 0 1 29.9854 566.0996)" font-family="'ArialMT'" font-size="10">nostalgia</text>
</g>
<g transform="translate(543,0)">
	<line fill="none" stroke="#CCCCCC" x1="50" y1="550" x2="50" y2="556"/>
	<text transform="matrix(1 0 0 1 -0.8672 566.0996)" font-family="'ArialMT'" font-size="10">pesadilla/sueño/onirico</text>
</g>
<g transform="translate(627,0)">
	<line fill="none" stroke="#CCCCCC" x1="50" y1="564.334" x2="50" y2="570.334"/>
	<text transform="matrix(1 0 0 1 3.8652 580.4336)" font-family="'ArialMT'" font-size="10">destruccion/desastre</text>
</g>
<g transform="translate(711,0)">
	<line fill="none" stroke="#CCCCCC" x1="50" y1="550" x2="50" y2="556"/>
	<text transform="matrix(1 0 0 1 17.207 566.0996)" font-family="'ArialMT'" font-size="10">contraste color</text>
</g>
<path fill="none" stroke="#CCCCCC" d="M50,556v-6h750v6"/>
</svg>
