<?xml version="1.0" encoding="utf-8"?>
<!-- Generator: Adobe Illustrator 16.0.0, SVG Export Plug-In . SVG Version: 6.00 Build 0)  -->
<!DOCTYPE svg PUBLIC "-//W3C//DTD SVG 1.1//EN" "http://www.w3.org/Graphics/SVG/1.1/DTD/svg11.dtd">
<svg version="1.1" id="Layer_1" xmlns="http://www.w3.org/2000/svg" xmlns:xlink="http://www.w3.org/1999/xlink" x="0px" y="0px"
	 width="800px" height="600px" viewBox="0 0 800 600" enable-background="new 0 0 800 600" xml:space="preserve">
<g>
	<g transform="translate(0,0)">
		<g transform="translate(0,550)">
			<line fill="none" stroke="#CCCCCC" x1="50" y1="0" x2="44" y2="0"/>
			<text transform="matrix(1 0 0 1 27.0986 3.2002)" font-family="'ArialMT'" font-size="10">0.0</text>
		</g>
		<g transform="translate(0,536.25)">
			<line fill="none" stroke="#CCCCCC" x1="50" y1="0" x2="44" y2="0"/>
			<text transform="matrix(1 0 0 1 27.0986 3.2002)" font-family="'ArialMT'" font-size="10">0.5</text>
		</g>
		<g transform="translate(0,522.5)">
			<line fill="none" stroke="#CCCCCC" x1="50" y1="0" x2="44" y2="0"/>
			<text transform="matrix(1 0 0 1 27.0986 3.2002)" font-family="'ArialMT'" font-size="10">1.0</text>
		</g>
		<g transform="translate(0,508.75)">
			<line fill="none" stroke="#CCCCCC" x1="50" y1="0" x2="44" y2="0"/>
			<text transform="matrix(1 0 0 1 27.0986 3.2002)" font-family="'ArialMT'" font-size="10">1.5</text>
		</g>
		<g transform="translate(0,495)">
			<line fill="none" stroke="#CCCCCC" x1="50" y1="0" x2="44" y2="0"/>
			<text transform="matrix(1 0 0 1 27.0986 3.2002)" font-family="'ArialMT'" font-size="10">2.0</text>
		</g>
		<g transform="translate(0,481.25)">
			<line fill="none" stroke="#CCCCCC" x1="50" y1="0" x2="44" y2="0"/>
			<text transform="matrix(1 0 0 1 27.0986 3.2002)" font-family="'ArialMT'" font-size="10">2.5</text>
		</g>
		<g transform="translate(0,467.5)">
			<line fill="none" stroke="#CCCCCC" x1="50" y1="0" x2="44" y2="0"/>
			<text transform="matrix(1 0 0 1 27.0986 3.2002)" font-family="'ArialMT'" font-size="10">3.0</text>
		</g>
		<g transform="translate(0,453.75)">
			<line fill="none" stroke="#CCCCCC" x1="50" y1="0" x2="44" y2="0"/>
			<text transform="matrix(1 0 0 1 27.0986 3.2002)" font-family="'ArialMT'" font-size="10">3.5</text>
		</g>
		<g transform="translate(0,440)">
			<line fill="none" stroke="#CCCCCC" x1="50" y1="0" x2="44" y2="0"/>
			<text transform="matrix(1 0 0 1 27.0986 3.2002)" font-family="'ArialMT'" font-size="10">4.0</text>
		</g>
		<g transform="translate(0,426.25)">
			<line fill="none" stroke="#CCCCCC" x1="50" y1="0" x2="44" y2="0"/>
			<text transform="matrix(1 0 0 1 27.0986 3.2002)" font-family="'ArialMT'" font-size="10">4.5</text>
		</g>
		<g transform="translate(0,412.5)">
			<line fill="none" stroke="#CCCCCC" x1="50" y1="0" x2="44" y2="0"/>
			<text transform="matrix(1 0 0 1 27.0986 3.2002)" font-family="'ArialMT'" font-size="10">5.0</text>
		</g>
		<g transform="translate(0,398.75)">
			<line fill="none" stroke="#CCCCCC" x1="50" y1="0" x2="44" y2="0"/>
			<text transform="matrix(1 0 0 1 27.0986 3.2002)" font-family="'ArialMT'" font-size="10">5.5</text>
		</g>
		<g transform="translate(0,385)">
			<line fill="none" stroke="#CCCCCC" x1="50" y1="0" x2="44" y2="0"/>
			<text transform="matrix(1 0 0 1 27.0986 3.2002)" font-family="'ArialMT'" font-size="10">6.0</text>
		</g>
		<g transform="translate(0,371.25)">
			<line fill="none" stroke="#CCCCCC" x1="50" y1="0" x2="44" y2="0"/>
			<text transform="matrix(1 0 0 1 27.0986 3.2002)" font-family="'ArialMT'" font-size="10">6.5</text>
		</g>
		<g transform="translate(0,357.5)">
			<line fill="none" stroke="#CCCCCC" x1="50" y1="0" x2="44" y2="0"/>
			<text transform="matrix(1 0 0 1 27.0986 3.2002)" font-family="'ArialMT'" font-size="10">7.0</text>
		</g>
		<g transform="translate(0,343.75)">
			<line fill="none" stroke="#CCCCCC" x1="50" y1="0" x2="44" y2="0"/>
			<text transform="matrix(1 0 0 1 27.0986 3.2002)" font-family="'ArialMT'" font-size="10">7.5</text>
		</g>
		<g transform="translate(0,330)">
			<line fill="none" stroke="#CCCCCC" x1="50" y1="0" x2="44" y2="0"/>
			<text transform="matrix(1 0 0 1 27.0986 3.2002)" font-family="'ArialMT'" font-size="10">8.0</text>
		</g>
		<g transform="translate(0,316.25)">
			<line fill="none" stroke="#CCCCCC" x1="50" y1="0" x2="44" y2="0"/>
			<text transform="matrix(1 0 0 1 27.0986 3.2002)" font-family="'ArialMT'" font-size="10">8.5</text>
		</g>
		<g transform="translate(0,302.5)">
			<line fill="none" stroke="#CCCCCC" x1="50" y1="0" x2="44" y2="0"/>
			<text transform="matrix(1 0 0 1 27.0986 3.2002)" font-family="'ArialMT'" font-size="10">9.0</text>
		</g>
		<g transform="translate(0,288.75)">
			<line fill="none" stroke="#CCCCCC" x1="50" y1="0" x2="44" y2="0"/>
			<text transform="matrix(1 0 0 1 27.0986 3.2002)" font-family="'ArialMT'" font-size="10">9.5</text>
		</g>
		<g transform="translate(0,275)">
			<line fill="none" stroke="#CCCCCC" x1="50" y1="0" x2="44" y2="0"/>
			<text transform="matrix(1 0 0 1 21.5371 3.2002)" font-family="'ArialMT'" font-size="10">10.0</text>
		</g>
		<g transform="translate(0,261.25)">
			<line fill="none" stroke="#CCCCCC" x1="50" y1="0" x2="44" y2="0"/>
			<text transform="matrix(1 0 0 1 21.5371 3.2002)" font-family="'ArialMT'" font-size="10">10.5</text>
		</g>
		<g transform="translate(0,247.49999999999997)">
			<line fill="none" stroke="#CCCCCC" x1="50" y1="0" x2="44" y2="0"/>
			<text transform="matrix(1 0 0 1 22.2793 3.2002)" font-family="'ArialMT'" font-size="10">11.0</text>
		</g>
		<g transform="translate(0,233.75000000000003)">
			<line fill="none" stroke="#CCCCCC" x1="50" y1="0" x2="44" y2="0"/>
			<text transform="matrix(1 0 0 1 22.2793 3.2002)" font-family="'ArialMT'" font-size="10">11.5</text>
		</g>
		<g transform="translate(0,220)">
			<line fill="none" stroke="#CCCCCC" x1="50" y1="0" x2="44" y2="0"/>
			<text transform="matrix(1 0 0 1 21.5371 3.2002)" font-family="'ArialMT'" font-size="10">12.0</text>
		</g>
		<g transform="translate(0,206.25)">
			<line fill="none" stroke="#CCCCCC" x1="50" y1="0" x2="44" y2="0"/>
			<text transform="matrix(1 0 0 1 21.5371 3.2002)" font-family="'ArialMT'" font-size="10">12.5</text>
		</g>
		<g transform="translate(0,192.5)">
			<line fill="none" stroke="#CCCCCC" x1="50" y1="0" x2="44" y2="0"/>
			<text transform="matrix(1 0 0 1 21.5371 3.2002)" font-family="'ArialMT'" font-size="10">13.0</text>
		</g>
		<g transform="translate(0,178.74999999999997)">
			<line fill="none" stroke="#CCCCCC" x1="50" y1="0" x2="44" y2="0"/>
			<text transform="matrix(1 0 0 1 21.5371 3.2002)" font-family="'ArialMT'" font-size="10">13.5</text>
		</g>
		<g transform="translate(0,165.00000000000003)">
			<line fill="none" stroke="#CCCCCC" x1="50" y1="0" x2="44" y2="0"/>
			<text transform="matrix(1 0 0 1 21.5371 3.2002)" font-family="'ArialMT'" font-size="10">14.0</text>
		</g>
		<g transform="translate(0,151.25)">
			<line fill="none" stroke="#CCCCCC" x1="50" y1="0" x2="44" y2="0"/>
			<text transform="matrix(1 0 0 1 21.5371 3.2002)" font-family="'ArialMT'" font-size="10">14.5</text>
		</g>
		<g transform="translate(0,137.5)">
			<line fill="none" stroke="#CCCCCC" x1="50" y1="0" x2="44" y2="0"/>
			<text transform="matrix(1 0 0 1 21.5371 3.2002)" font-family="'ArialMT'" font-size="10">15.0</text>
		</g>
		<g transform="translate(0,123.74999999999999)">
			<line fill="none" stroke="#CCCCCC" x1="50" y1="0" x2="44" y2="0"/>
			<text transform="matrix(1 0 0 1 21.5371 3.2002)" font-family="'ArialMT'" font-size="10">15.5</text>
		</g>
		<g transform="translate(0,109.99999999999997)">
			<line fill="none" stroke="#CCCCCC" x1="50" y1="0" x2="44" y2="0"/>
			<text transform="matrix(1 0 0 1 21.5371 3.2002)" font-family="'ArialMT'" font-size="10">16.0</text>
		</g>
		<g transform="translate(0,96.25000000000003)">
			<line fill="none" stroke="#CCCCCC" x1="50" y1="0" x2="44" y2="0"/>
			<text transform="matrix(1 0 0 1 21.5371 3.2002)" font-family="'ArialMT'" font-size="10">16.5</text>
		</g>
		<g transform="translate(0,82.50000000000001)">
			<line fill="none" stroke="#CCCCCC" x1="50" y1="0" x2="44" y2="0"/>
			<text transform="matrix(1 0 0 1 21.5371 3.2002)" font-family="'ArialMT'" font-size="10">17.0</text>
		</g>
		<g transform="translate(0,68.75)">
			<line fill="none" stroke="#CCCCCC" x1="50" y1="0" x2="44" y2="0"/>
			<text transform="matrix(1 0 0 1 21.5371 3.2002)" font-family="'ArialMT'" font-size="10">17.5</text>
		</g>
		<g transform="translate(0,54.999999999999986)">
			<line fill="none" stroke="#CCCCCC" x1="50" y1="0" x2="44" y2="0"/>
			<text transform="matrix(1 0 0 1 21.5371 3.2002)" font-family="'ArialMT'" font-size="10">18.0</text>
		</g>
		<g transform="translate(0,41.24999999999998)">
			<line fill="none" stroke="#CCCCCC" x1="50" y1="0" x2="44" y2="0"/>
			<text transform="matrix(1 0 0 1 21.5371 3.2002)" font-family="'ArialMT'" font-size="10">18.5</text>
		</g>
		<g transform="translate(0,27.500000000000025)">
			<line fill="none" stroke="#CCCCCC" x1="50" y1="0" x2="44" y2="0"/>
			<text transform="matrix(1 0 0 1 21.5371 3.2002)" font-family="'ArialMT'" font-size="10">19.0</text>
		</g>
		<g transform="translate(0,13.750000000000012)">
			<line fill="none" stroke="#CCCCCC" x1="50" y1="0" x2="44" y2="0"/>
			<text transform="matrix(1 0 0 1 21.5371 3.2002)" font-family="'ArialMT'" font-size="10">19.5</text>
		</g>
		<g transform="translate(0,0)">
			<line fill="none" stroke="#CCCCCC" x1="50" y1="0" x2="44" y2="0"/>
			<text transform="matrix(1 0 0 1 21.5371 3.2002)" font-family="'ArialMT'" font-size="10">20.0</text>
		</g>
		<path fill="none" stroke="#CCCCCC" d="M44,0h6v550h-6"/>
	</g>
	<rect x="51" fill="#919191" width="76" height="550"/>
	<rect x="135" y="302.5" fill="#475CC7" width="76" height="247.5"/>
	<rect x="219" y="467.5" width="76" height="82.5"/>
	<rect x="303" y="467.5" fill="#6F4F99" width="76" height="82.5"/>
	<rect x="387" y="495" fill="#52B87A" width="76" height="55"/>
	<rect x="471" y="495" fill="#69A2BF" width="76" height="55"/>
	<rect x="555" y="522.5" fill="#E88C49" width="76" height="27.5"/>
	<rect x="639" y="522.5" fill="#EB3EC5" width="76" height="27.5"/>
	<rect x="723" y="522.5" fill="#43C5D6" width="76" height="27.5"/>
	<g transform="translate(50,550)">
		<g transform="translate(39,0)">
			<line fill="none" stroke="#CCCCCC" x1="0" y1="0" x2="0" y2="6"/>
			<text transform="matrix(1 0 0 1 -8.0566 16.0996)" font-family="'ArialMT'" font-size="10">gris</text>
		</g>
		<g transform="translate(123,0)">
			<line fill="none" stroke="#CCCCCC" x1="0" y1="0" x2="0" y2="6"/>
			<text transform="matrix(1 0 0 1 -9.1724 16.0996)" font-family="'ArialMT'" font-size="10">azul</text>
		</g>
		<g transform="translate(207,0)">
			<line fill="none" stroke="#CCCCCC" x1="0" y1="0" x2="0" y2="6"/>
			<text transform="matrix(1 0 0 1 -12.7881 16.0996)" font-family="'ArialMT'" font-size="10">negro</text>
		</g>
		<g transform="translate(291,0)">
			<line fill="none" stroke="#CCCCCC" x1="0" y1="0" x2="0" y2="6"/>
			<text transform="matrix(1 0 0 1 -16.9531 16.0996)" font-family="'ArialMT'" font-size="10">morado</text>
		</g>
		<g transform="translate(375,0)">
			<line fill="none" stroke="#CCCCCC" x1="0" y1="0" x2="0" y2="6"/>
			<text transform="matrix(1 0 0 1 -12.5078 16.0996)" font-family="'ArialMT'" font-size="10">verde</text>
		</g>
		<g transform="translate(459,0)">
			<line fill="none" stroke="#CCCCCC" x1="0" y1="0" x2="0" y2="6"/>
			<text transform="matrix(1 0 0 1 -15.8418 16.0996)" font-family="'ArialMT'" font-size="10">celeste</text>
		</g>
		<g transform="translate(543,0)">
			<line fill="none" stroke="#CCCCCC" x1="0" y1="0" x2="0" y2="6"/>
			<text transform="matrix(1 0 0 1 -16.6797 16.0996)" font-family="'ArialMT'" font-size="10">naranjo</text>
		</g>
		<g transform="translate(627,0)">
			<line fill="none" stroke="#CCCCCC" x1="0" y1="0" x2="0" y2="6"/>
			<text transform="matrix(1 0 0 1 -19.458 16.0996)" font-family="'ArialMT'" font-size="10">magenta</text>
		</g>
		<g transform="translate(711,0)">
			<line fill="none" stroke="#CCCCCC" x1="0" y1="0" x2="0" y2="6"/>
			<text transform="matrix(1 0 0 1 -10.5615 16.0996)" font-family="'ArialMT'" font-size="10">cyan</text>
		</g>
		<path fill="none" stroke="#CCCCCC" d="M0,6V0h750v6"/>
	</g>
</g>
</svg>
