<?xml version="1.0" encoding="utf-8"?>
<!-- Generator: Adobe Illustrator 16.0.0, SVG Export Plug-In . SVG Version: 6.00 Build 0)  -->
<!DOCTYPE svg PUBLIC "-//W3C//DTD SVG 1.1//EN" "http://www.w3.org/Graphics/SVG/1.1/DTD/svg11.dtd">
<svg version="1.1" id="Layer_1" xmlns="http://www.w3.org/2000/svg" xmlns:xlink="http://www.w3.org/1999/xlink" x="0px" y="0px"
	 width="800px" height="600px" viewBox="0 0 800 600" enable-background="new 0 0 800 600" xml:space="preserve">
<g transform="translate(0,0)">
	<g transform="translate(0,550)">
		<line fill="none" stroke="#CCCCCC" x1="63.613" y1="4.924" x2="57.899" y2="4.924"/>
		<text transform="matrix(1 0 0 1 41.8052 7.9707)" font-family="'ArialMT'" font-size="9.5226">0.0</text>
	</g>
	<g transform="translate(0,537.7777777777777)">
		<line fill="none" stroke="#CCCCCC" x1="63.613" y1="5.506" x2="57.899" y2="5.506"/>
		<text transform="matrix(1 0 0 1 41.8052 8.5533)" font-family="'ArialMT'" font-size="9.5226">0.2</text>
	</g>
	<g transform="translate(0,525.5555555555555)">
		<line fill="none" stroke="#CCCCCC" x1="63.613" y1="6.091" x2="57.899" y2="6.091"/>
		<text transform="matrix(1 0 0 1 41.8052 9.1378)" font-family="'ArialMT'" font-size="9.5226">0.4</text>
	</g>
	<g transform="translate(0,513.3333333333334)">
		<line fill="none" stroke="#CCCCCC" x1="63.613" y1="6.674" x2="57.899" y2="6.674"/>
		<text transform="matrix(1 0 0 1 41.8052 9.7204)" font-family="'ArialMT'" font-size="9.5226">0.6</text>
	</g>
	<g transform="translate(0,501.1111111111111)">
		<line fill="none" stroke="#CCCCCC" x1="63.613" y1="7.257" x2="57.899" y2="7.257"/>
		<text transform="matrix(1 0 0 1 41.8052 10.3049)" font-family="'ArialMT'" font-size="9.5226">0.8</text>
	</g>
	<g transform="translate(0,488.88888888888886)">
		<line fill="none" stroke="#CCCCCC" x1="63.613" y1="7.841" x2="57.899" y2="7.841"/>
		<text transform="matrix(1 0 0 1 41.8052 10.8875)" font-family="'ArialMT'" font-size="9.5226">1.0</text>
	</g>
	<g transform="translate(0,476.6666666666667)">
		<line fill="none" stroke="#CCCCCC" x1="63.613" y1="8.424" x2="57.899" y2="8.424"/>
		<text transform="matrix(1 0 0 1 41.8052 11.471)" font-family="'ArialMT'" font-size="9.5226">1.2</text>
	</g>
	<g transform="translate(0,464.44444444444446)">
		<line fill="none" stroke="#CCCCCC" x1="63.613" y1="9.008" x2="57.899" y2="9.008"/>
		<text transform="matrix(1 0 0 1 41.8052 12.0546)" font-family="'ArialMT'" font-size="9.5226">1.4</text>
	</g>
	<g transform="translate(0,452.22222222222223)">
		<line fill="none" stroke="#CCCCCC" x1="63.613" y1="9.591" x2="57.899" y2="9.591"/>
		<text transform="matrix(1 0 0 1 41.8052 12.6381)" font-family="'ArialMT'" font-size="9.5226">1.6</text>
	</g>
	<g transform="translate(0,440)">
		<line fill="none" stroke="#CCCCCC" x1="63.613" y1="10.175" x2="57.899" y2="10.175"/>
		<text transform="matrix(1 0 0 1 41.8052 13.2217)" font-family="'ArialMT'" font-size="9.5226">1.8</text>
	</g>
	<g transform="translate(0,427.77777777777777)">
		<line fill="none" stroke="#CCCCCC" x1="63.613" y1="10.757" x2="57.899" y2="10.757"/>
		<text transform="matrix(1 0 0 1 41.8052 13.8043)" font-family="'ArialMT'" font-size="9.5226">2.0</text>
	</g>
	<g transform="translate(0,415.55555555555554)">
		<line fill="none" stroke="#CCCCCC" x1="63.613" y1="11.341" x2="57.899" y2="11.341"/>
		<text transform="matrix(1 0 0 1 41.8052 14.3888)" font-family="'ArialMT'" font-size="9.5226">2.2</text>
	</g>
	<g transform="translate(0,403.33333333333337)">
		<line fill="none" stroke="#CCCCCC" x1="63.613" y1="11.924" x2="57.899" y2="11.924"/>
		<text transform="matrix(1 0 0 1 41.8052 14.9713)" font-family="'ArialMT'" font-size="9.5226">2.4</text>
	</g>
	<g transform="translate(0,391.1111111111111)">
		<line fill="none" stroke="#CCCCCC" x1="63.613" y1="12.508" x2="57.899" y2="12.508"/>
		<text transform="matrix(1 0 0 1 41.8052 15.5559)" font-family="'ArialMT'" font-size="9.5226">2.6</text>
	</g>
	<g transform="translate(0,378.8888888888889)">
		<line fill="none" stroke="#CCCCCC" x1="63.613" y1="13.092" x2="57.899" y2="13.092"/>
		<text transform="matrix(1 0 0 1 41.8052 16.1385)" font-family="'ArialMT'" font-size="9.5226">2.8</text>
	</g>
	<g transform="translate(0,366.6666666666667)">
		<line fill="none" stroke="#CCCCCC" x1="63.613" y1="13.674" x2="57.899" y2="13.674"/>
		<text transform="matrix(1 0 0 1 41.8052 16.722)" font-family="'ArialMT'" font-size="9.5226">3.0</text>
	</g>
	<g transform="translate(0,354.4444444444444)">
		<line fill="none" stroke="#CCCCCC" x1="63.613" y1="14.259" x2="57.899" y2="14.259"/>
		<text transform="matrix(1 0 0 1 41.8052 17.3055)" font-family="'ArialMT'" font-size="9.5226">3.2</text>
	</g>
	<g transform="translate(0,342.22222222222223)">
		<line fill="none" stroke="#CCCCCC" x1="63.613" y1="14.842" x2="57.899" y2="14.842"/>
		<text transform="matrix(1 0 0 1 41.8052 17.8881)" font-family="'ArialMT'" font-size="9.5226">3.4</text>
	</g>
	<g transform="translate(0,330)">
		<line fill="none" stroke="#CCCCCC" x1="63.613" y1="15.426" x2="57.899" y2="15.426"/>
		<text transform="matrix(1 0 0 1 41.8052 18.4727)" font-family="'ArialMT'" font-size="9.5226">3.6</text>
	</g>
	<g transform="translate(0,317.77777777777777)">
		<line fill="none" stroke="#CCCCCC" x1="63.613" y1="16.008" x2="57.899" y2="16.008"/>
		<text transform="matrix(1 0 0 1 41.8052 19.0552)" font-family="'ArialMT'" font-size="9.5226">3.8</text>
	</g>
	<g transform="translate(0,305.55555555555554)">
		<line fill="none" stroke="#CCCCCC" x1="63.613" y1="16.592" x2="57.899" y2="16.592"/>
		<text transform="matrix(1 0 0 1 41.8052 19.6398)" font-family="'ArialMT'" font-size="9.5226">4.0</text>
	</g>
	<g transform="translate(0,293.3333333333333)">
		<line fill="none" stroke="#CCCCCC" x1="63.613" y1="17.175" x2="57.899" y2="17.175"/>
		<text transform="matrix(1 0 0 1 41.8052 20.2223)" font-family="'ArialMT'" font-size="9.5226">4.2</text>
	</g>
	<g transform="translate(0,281.1111111111111)">
		<line fill="none" stroke="#CCCCCC" x1="63.613" y1="17.759" x2="57.899" y2="17.759"/>
		<text transform="matrix(1 0 0 1 41.8052 20.8059)" font-family="'ArialMT'" font-size="9.5226">4.4</text>
	</g>
	<g transform="translate(0,268.8888888888889)">
		<line fill="none" stroke="#CCCCCC" x1="63.613" y1="18.343" x2="57.899" y2="18.343"/>
		<text transform="matrix(1 0 0 1 41.8052 21.3894)" font-family="'ArialMT'" font-size="9.5226">4.6</text>
	</g>
	<g transform="translate(0,256.6666666666667)">
		<line fill="none" stroke="#CCCCCC" x1="63.613" y1="18.926" x2="57.899" y2="18.926"/>
		<text transform="matrix(1 0 0 1 41.8052 21.9725)" font-family="'ArialMT'" font-size="9.5226">4.8</text>
	</g>
	<g transform="translate(0,244.44444444444443)">
		<line fill="none" stroke="#CCCCCC" x1="63.613" y1="19.509" x2="57.899" y2="19.509"/>
		<text transform="matrix(1 0 0 1 41.8052 22.5565)" font-family="'ArialMT'" font-size="9.5226">5.0</text>
	</g>
	<g transform="translate(0,232.2222222222222)">
		<line fill="none" stroke="#CCCCCC" x1="63.613" y1="20.093" x2="57.899" y2="20.093"/>
		<text transform="matrix(1 0 0 1 41.8052 23.1396)" font-family="'ArialMT'" font-size="9.5226">5.2</text>
	</g>
	<g transform="translate(0,219.99999999999994)">
		<line fill="none" stroke="#CCCCCC" x1="63.613" y1="20.676" x2="57.899" y2="20.676"/>
		<text transform="matrix(1 0 0 1 41.8052 23.7236)" font-family="'ArialMT'" font-size="9.5226">5.4</text>
	</g>
	<g transform="translate(0,207.77777777777777)">
		<line fill="none" stroke="#CCCCCC" x1="63.613" y1="21.26" x2="57.899" y2="21.26"/>
		<text transform="matrix(1 0 0 1 41.8052 24.3067)" font-family="'ArialMT'" font-size="9.5226">5.6</text>
	</g>
	<g transform="translate(0,195.5555555555556)">
		<line fill="none" stroke="#CCCCCC" x1="63.613" y1="21.843" x2="57.899" y2="21.843"/>
		<text transform="matrix(1 0 0 1 41.8052 24.8903)" font-family="'ArialMT'" font-size="9.5226">5.8</text>
	</g>
	<g transform="translate(0,183.33333333333334)">
		<line fill="none" stroke="#CCCCCC" x1="63.613" y1="22.427" x2="57.899" y2="22.427"/>
		<text transform="matrix(1 0 0 1 41.8052 25.4733)" font-family="'ArialMT'" font-size="9.5226">6.0</text>
	</g>
	<g transform="translate(0,171.11111111111111)">
		<line fill="none" stroke="#CCCCCC" x1="63.613" y1="23.01" x2="57.899" y2="23.01"/>
		<text transform="matrix(1 0 0 1 41.8052 26.0573)" font-family="'ArialMT'" font-size="9.5226">6.2</text>
	</g>
	<g transform="translate(0,158.88888888888889)">
		<line fill="none" stroke="#CCCCCC" x1="63.613" y1="23.593" x2="57.899" y2="23.593"/>
		<text transform="matrix(1 0 0 1 41.8052 26.6404)" font-family="'ArialMT'" font-size="9.5226">6.4</text>
	</g>
	<g transform="translate(0,146.66666666666669)">
		<line fill="none" stroke="#CCCCCC" x1="63.613" y1="24.177" x2="57.899" y2="24.177"/>
		<text transform="matrix(1 0 0 1 41.8052 27.2244)" font-family="'ArialMT'" font-size="9.5226">6.6</text>
	</g>
	<g transform="translate(0,134.44444444444446)">
		<line fill="none" stroke="#CCCCCC" x1="63.613" y1="24.76" x2="57.899" y2="24.76"/>
		<text transform="matrix(1 0 0 1 41.8052 27.8075)" font-family="'ArialMT'" font-size="9.5226">6.8</text>
	</g>
	<g transform="translate(0,122.22222222222221)">
		<line fill="none" stroke="#CCCCCC" x1="63.613" y1="25.344" x2="57.899" y2="25.344"/>
		<text transform="matrix(1 0 0 1 41.8052 28.3906)" font-family="'ArialMT'" font-size="9.5226">7.0</text>
	</g>
	<g transform="translate(0,109.99999999999997)">
		<line fill="none" stroke="#CCCCCC" x1="63.613" y1="25.927" x2="57.899" y2="25.927"/>
		<text transform="matrix(1 0 0 1 41.8052 28.9741)" font-family="'ArialMT'" font-size="9.5226">7.2</text>
	</g>
	<g transform="translate(0,97.77777777777773)">
		<line fill="none" stroke="#CCCCCC" x1="63.613" y1="26.511" x2="57.899" y2="26.511"/>
		<text transform="matrix(1 0 0 1 41.8052 29.5572)" font-family="'ArialMT'" font-size="9.5226">7.4</text>
	</g>
	<g transform="translate(0,85.55555555555556)">
		<line fill="none" stroke="#CCCCCC" x1="63.613" y1="27.094" x2="57.899" y2="27.094"/>
		<text transform="matrix(1 0 0 1 41.8052 30.1412)" font-family="'ArialMT'" font-size="9.5226">7.6</text>
	</g>
	<g transform="translate(0,73.33333333333331)">
		<line fill="none" stroke="#CCCCCC" x1="63.613" y1="27.677" x2="57.899" y2="27.677"/>
		<text transform="matrix(1 0 0 1 41.8052 30.7243)" font-family="'ArialMT'" font-size="9.5226">7.8</text>
	</g>
	<g transform="translate(0,61.111111111111136)">
		<line fill="none" stroke="#CCCCCC" x1="63.613" y1="28.261" x2="57.899" y2="28.261"/>
		<text transform="matrix(1 0 0 1 41.8052 31.3083)" font-family="'ArialMT'" font-size="9.5226">8.0</text>
	</g>
	<g transform="translate(0,48.88888888888896)">
		<line fill="none" stroke="#CCCCCC" x1="63.613" y1="28.844" x2="57.899" y2="28.844"/>
		<text transform="matrix(1 0 0 1 41.8052 31.8914)" font-family="'ArialMT'" font-size="9.5226">8.2</text>
	</g>
	<g transform="translate(0,36.66666666666666)">
		<line fill="none" stroke="#CCCCCC" x1="63.613" y1="29.428" x2="57.899" y2="29.428"/>
		<text transform="matrix(1 0 0 1 41.8052 32.4754)" font-family="'ArialMT'" font-size="9.5226">8.4</text>
	</g>
	<g transform="translate(0,24.44444444444448)">
		<line fill="none" stroke="#CCCCCC" x1="63.613" y1="30.011" x2="57.899" y2="30.011"/>
		<text transform="matrix(1 0 0 1 41.8052 33.0585)" font-family="'ArialMT'" font-size="9.5226">8.6</text>
	</g>
	<g transform="translate(0,12.222222222222179)">
		<line fill="none" stroke="#CCCCCC" x1="63.613" y1="30.595" x2="57.899" y2="30.595"/>
		<text transform="matrix(1 0 0 1 41.8052 33.6411)" font-family="'ArialMT'" font-size="9.5226">8.8</text>
	</g>
	<g transform="translate(0,0)">
		<line fill="none" stroke="#CCCCCC" x1="63.613" y1="31.178" x2="57.899" y2="31.178"/>
		<text transform="matrix(1 0 0 1 41.8052 34.2251)" font-family="'ArialMT'" font-size="9.5226">9.0</text>
	</g>
	<path fill="none" stroke="#CCCCCC" d="M57.899,31.178h5.714v523.746h-5.714"/>
</g>
<rect x="67.422" y="31.178" fill="#BF6969" width="58.088" height="523.746"/>
<rect x="132.176" y="147.566" fill="#BF9869" width="58.088" height="407.358"/>
<rect x="196.93" y="205.76" fill="#B7BF69" width="58.088" height="349.164"/>
<rect x="261.684" y="263.954" fill="#88BF69" width="58.088" height="290.97"/>
<rect x="326.438" y="263.954" fill="#69BF79" width="58.088" height="290.97"/>
<rect x="391.192" y="380.341" fill="#69BFA7" width="58.088" height="174.583"/>
<rect x="455.946" y="438.535" fill="#69A7BF" width="58.088" height="116.389"/>
<rect x="520.7" y="438.535" fill="#6979BF" width="58.088" height="116.389"/>
<rect x="585.454" y="496.729" fill="#8869BF" width="58.088" height="58.194"/>
<rect x="650.208" y="496.729" fill="#B769BF" width="58.088" height="58.194"/>
<rect x="714.962" y="496.729" fill="#BF6998" width="58.088" height="58.194"/>
<g transform="translate(50,550)">
	<g transform="translate(34.5,0)">
		<line fill="none" stroke="#CCCCCC" x1="11.966" y1="4.924" x2="11.966" y2="10.637"/>
		<text transform="matrix(1 0 0 1 -6.8276 20.2539)" font-family="'ArialMT'" font-size="9.5226">Dualidad</text>
	</g>
	<g transform="translate(102.5,0)">
		<line fill="none" stroke="#CCCCCC" x1="8.72" y1="4.924" x2="8.72" y2="10.637"/>
		<text transform="matrix(1 0 0 1 -11.9219 20.2539)" font-family="'ArialMT'" font-size="9.5226">Contraste</text>
	</g>
	<g transform="translate(170.5,0)">
		<line fill="none" stroke="#CCCCCC" x1="5.474" y1="4.924" x2="5.474" y2="10.637"/>
		<text transform="matrix(1 0 0 1 -20.2036 20.2539)" font-family="'ArialMT'" font-size="9.5226">Profundidad</text>
	</g>
	<g transform="translate(238.5,0)">
		<line fill="none" stroke="#CCCCCC" x1="2.229" y1="4.924" x2="2.229" y2="10.637"/>
		<text transform="matrix(1 0 0 1 -23.7983 20.2539)" font-family="'ArialMT'" font-size="9.5226">Tranquilidad</text>
	</g>
	<g transform="translate(306.5,0)">
		<line fill="none" stroke="#CCCCCC" x1="-1.018" y1="4.924" x2="-1.018" y2="10.637"/>
		<text transform="matrix(1 0 0 1 -30.6616 20.2539)" font-family="'ArialMT'" font-size="9.5226">Confrontacion</text>
	</g>
	<g transform="translate(374.5,0)">
		<line fill="none" stroke="#CCCCCC" x1="-4.264" y1="4.924" x2="-4.264" y2="10.637"/>
		<text transform="matrix(1 0 0 1 -20.6748 20.2539)" font-family="'ArialMT'" font-size="9.5226">Tension</text>
	</g>
	<g transform="translate(442.5,0)">
		<line fill="none" stroke="#CCCCCC" x1="-7.51" y1="4.924" x2="-7.51" y2="10.637"/>
		<text transform="matrix(1 0 0 1 -23.3887 20.2539)" font-family="'ArialMT'" font-size="9.5226">Calidez</text>
	</g>
	<g transform="translate(510.5,0)">
		<line fill="none" stroke="#CCCCCC" x1="-10.756" y1="4.924" x2="-10.756" y2="10.637"/>
		<text transform="matrix(1 0 0 1 -40.1279 20.2539)" font-family="'ArialMT'" font-size="9.5226">Calma y rabia</text>
	</g>
	<g transform="translate(578.5,0)">
		<line fill="none" stroke="#CCCCCC" x1="-14.002" y1="4.924" x2="-14.002" y2="10.637"/>
		<text transform="matrix(1 0 0 1 -34.1162 20.2539)" font-family="'ArialMT'" font-size="9.5226">atardecer</text>
	</g>
	<g transform="translate(646.5,0)">
		<line fill="none" stroke="#CCCCCC" x1="-17.248" y1="4.924" x2="-17.248" y2="10.637"/>
		<text transform="matrix(1 0 0 1 -34.7217 20.2539)" font-family="'ArialMT'" font-size="9.5226">Soledad</text>
	</g>
	<g transform="translate(714.5,0)">
		<line fill="none" stroke="#CCCCCC" x1="-20.494" y1="4.924" x2="-20.494" y2="10.637"/>
		<text transform="matrix(1 0 0 1 -33.4619 20.2539)" font-family="'ArialMT'" font-size="9.5226">Miedo</text>
	</g>
	<path fill="none" stroke="#CCCCCC" d="M13.613,10.637V4.924h714.198v5.713"/>
</g>
</svg>
