<?xml version="1.0" encoding="utf-8"?>
<!-- Generator: Adobe Illustrator 16.0.0, SVG Export Plug-In . SVG Version: 6.00 Build 0)  -->
<!DOCTYPE svg PUBLIC "-//W3C//DTD SVG 1.1//EN" "http://www.w3.org/Graphics/SVG/1.1/DTD/svg11.dtd">
<svg version="1.1" id="Layer_1" xmlns="http://www.w3.org/2000/svg" xmlns:xlink="http://www.w3.org/1999/xlink" x="0px" y="0px"
	 width="800px" height="600px" viewBox="0 0 800 600" enable-background="new 0 0 800 600" xml:space="preserve">
<g>
	<g transform="translate(0,0)">
		<g transform="translate(0,550)">
			<line fill="none" stroke="#CCCCCC" x1="64.887" y1="1.204" x2="59.261" y2="1.204"/>
			<text transform="matrix(1 0 0 1 43.4121 4.2061)" font-family="'ArialMT'" font-size="9.3774">0.0</text>
		</g>
		<g transform="translate(0,538.5416666666666)">
			<line fill="none" stroke="#CCCCCC" x1="64.887" y1="1.918" x2="59.261" y2="1.918"/>
			<text transform="matrix(1 0 0 1 43.4121 4.9183)" font-family="'ArialMT'" font-size="9.3774">0.5</text>
		</g>
		<g transform="translate(0,527.0833333333334)">
			<line fill="none" stroke="#CCCCCC" x1="64.887" y1="2.631" x2="59.261" y2="2.631"/>
			<text transform="matrix(1 0 0 1 43.4121 5.6325)" font-family="'ArialMT'" font-size="9.3774">1.0</text>
		</g>
		<g transform="translate(0,515.625)">
			<line fill="none" stroke="#CCCCCC" x1="64.887" y1="3.345" x2="59.261" y2="3.345"/>
			<text transform="matrix(1 0 0 1 43.4121 6.3457)" font-family="'ArialMT'" font-size="9.3774">1.5</text>
		</g>
		<g transform="translate(0,504.16666666666663)">
			<line fill="none" stroke="#CCCCCC" x1="64.887" y1="4.058" x2="59.261" y2="4.058"/>
			<text transform="matrix(1 0 0 1 43.4121 7.0589)" font-family="'ArialMT'" font-size="9.3774">2.0</text>
		</g>
		<g transform="translate(0,492.70833333333337)">
			<line fill="none" stroke="#CCCCCC" x1="64.887" y1="4.771" x2="59.261" y2="4.771"/>
			<text transform="matrix(1 0 0 1 43.4121 7.7721)" font-family="'ArialMT'" font-size="9.3774">2.5</text>
		</g>
		<g transform="translate(0,481.25)">
			<line fill="none" stroke="#CCCCCC" x1="64.887" y1="5.484" x2="59.261" y2="5.484"/>
			<text transform="matrix(1 0 0 1 43.4121 8.4863)" font-family="'ArialMT'" font-size="9.3774">3.0</text>
		</g>
		<g transform="translate(0,469.79166666666663)">
			<line fill="none" stroke="#CCCCCC" x1="64.887" y1="6.199" x2="59.261" y2="6.199"/>
			<text transform="matrix(1 0 0 1 43.4121 9.1986)" font-family="'ArialMT'" font-size="9.3774">3.5</text>
		</g>
		<g transform="translate(0,458.33333333333337)">
			<line fill="none" stroke="#CCCCCC" x1="64.887" y1="6.911" x2="59.261" y2="6.911"/>
			<text transform="matrix(1 0 0 1 43.4121 9.9128)" font-family="'ArialMT'" font-size="9.3774">4.0</text>
		</g>
		<g transform="translate(0,446.875)">
			<line fill="none" stroke="#CCCCCC" x1="64.887" y1="7.625" x2="59.261" y2="7.625"/>
			<text transform="matrix(1 0 0 1 43.4121 10.626)" font-family="'ArialMT'" font-size="9.3774">4.5</text>
		</g>
		<g transform="translate(0,435.41666666666663)">
			<line fill="none" stroke="#CCCCCC" x1="64.887" y1="8.338" x2="59.261" y2="8.338"/>
			<text transform="matrix(1 0 0 1 43.4121 11.3392)" font-family="'ArialMT'" font-size="9.3774">5.0</text>
		</g>
		<g transform="translate(0,423.95833333333337)">
			<line fill="none" stroke="#CCCCCC" x1="64.887" y1="9.051" x2="59.261" y2="9.051"/>
			<text transform="matrix(1 0 0 1 43.4121 12.0524)" font-family="'ArialMT'" font-size="9.3774">5.5</text>
		</g>
		<g transform="translate(0,412.5)">
			<line fill="none" stroke="#CCCCCC" x1="64.887" y1="9.765" x2="59.261" y2="9.765"/>
			<text transform="matrix(1 0 0 1 43.4121 12.7666)" font-family="'ArialMT'" font-size="9.3774">6.0</text>
		</g>
		<g transform="translate(0,401.0416666666667)">
			<line fill="none" stroke="#CCCCCC" x1="64.887" y1="10.479" x2="59.261" y2="10.479"/>
			<text transform="matrix(1 0 0 1 43.4121 13.4789)" font-family="'ArialMT'" font-size="9.3774">6.5</text>
		</g>
		<g transform="translate(0,389.5833333333333)">
			<line fill="none" stroke="#CCCCCC" x1="64.887" y1="11.192" x2="59.261" y2="11.192"/>
			<text transform="matrix(1 0 0 1 43.4121 14.193)" font-family="'ArialMT'" font-size="9.3774">7.0</text>
		</g>
		<g transform="translate(0,378.125)">
			<line fill="none" stroke="#CCCCCC" x1="64.887" y1="11.905" x2="59.261" y2="11.905"/>
			<text transform="matrix(1 0 0 1 43.4121 14.9062)" font-family="'ArialMT'" font-size="9.3774">7.5</text>
		</g>
		<g transform="translate(0,366.6666666666667)">
			<line fill="none" stroke="#CCCCCC" x1="64.887" y1="12.618" x2="59.261" y2="12.618"/>
			<text transform="matrix(1 0 0 1 43.4121 15.6195)" font-family="'ArialMT'" font-size="9.3774">8.0</text>
		</g>
		<g transform="translate(0,355.2083333333333)">
			<line fill="none" stroke="#CCCCCC" x1="64.887" y1="13.333" x2="59.261" y2="13.333"/>
			<text transform="matrix(1 0 0 1 43.4121 16.3327)" font-family="'ArialMT'" font-size="9.3774">8.5</text>
		</g>
		<g transform="translate(0,343.75)">
			<line fill="none" stroke="#CCCCCC" x1="64.887" y1="14.045" x2="59.261" y2="14.045"/>
			<text transform="matrix(1 0 0 1 43.4121 17.0469)" font-family="'ArialMT'" font-size="9.3774">9.0</text>
		</g>
		<g transform="translate(0,332.2916666666667)">
			<line fill="none" stroke="#CCCCCC" x1="64.887" y1="14.758" x2="59.261" y2="14.758"/>
			<text transform="matrix(1 0 0 1 43.4121 17.7591)" font-family="'ArialMT'" font-size="9.3774">9.5</text>
		</g>
		<g transform="translate(0,320.8333333333333)">
			<line fill="none" stroke="#CCCCCC" x1="64.887" y1="15.472" x2="59.261" y2="15.472"/>
			<text transform="matrix(1 0 0 1 38.1968 18.4733)" font-family="'ArialMT'" font-size="9.3774">10.0</text>
		</g>
		<g transform="translate(0,309.375)">
			<line fill="none" stroke="#CCCCCC" x1="64.887" y1="16.186" x2="59.261" y2="16.186"/>
			<text transform="matrix(1 0 0 1 38.1968 19.1865)" font-family="'ArialMT'" font-size="9.3774">10.5</text>
		</g>
		<g transform="translate(0,297.9166666666667)">
			<line fill="none" stroke="#CCCCCC" x1="64.887" y1="16.899" x2="59.261" y2="16.899"/>
			<text transform="matrix(1 0 0 1 38.8931 19.8997)" font-family="'ArialMT'" font-size="9.3774">11.0</text>
		</g>
		<g transform="translate(0,286.4583333333333)">
			<line fill="none" stroke="#CCCCCC" x1="64.887" y1="17.612" x2="59.261" y2="17.612"/>
			<text transform="matrix(1 0 0 1 38.8931 20.6129)" font-family="'ArialMT'" font-size="9.3774">11.5</text>
		</g>
		<g transform="translate(0,275)">
			<line fill="none" stroke="#CCCCCC" x1="64.887" y1="18.325" x2="59.261" y2="18.325"/>
			<text transform="matrix(1 0 0 1 38.1968 21.3267)" font-family="'ArialMT'" font-size="9.3774">12.0</text>
		</g>
		<g transform="translate(0,263.54166666666663)">
			<line fill="none" stroke="#CCCCCC" x1="64.887" y1="19.038" x2="59.261" y2="19.038"/>
			<text transform="matrix(1 0 0 1 38.1968 22.0394)" font-family="'ArialMT'" font-size="9.3774">12.5</text>
		</g>
		<g transform="translate(0,252.08333333333334)">
			<line fill="none" stroke="#CCCCCC" x1="64.887" y1="19.752" x2="59.261" y2="19.752"/>
			<text transform="matrix(1 0 0 1 38.1968 22.7531)" font-family="'ArialMT'" font-size="9.3774">13.0</text>
		</g>
		<g transform="translate(0,240.625)">
			<line fill="none" stroke="#CCCCCC" x1="64.887" y1="20.465" x2="59.261" y2="20.465"/>
			<text transform="matrix(1 0 0 1 38.1968 23.4668)" font-family="'ArialMT'" font-size="9.3774">13.5</text>
		</g>
		<g transform="translate(0,229.16666666666666)">
			<line fill="none" stroke="#CCCCCC" x1="64.887" y1="21.179" x2="59.261" y2="21.179"/>
			<text transform="matrix(1 0 0 1 38.1968 24.1805)" font-family="'ArialMT'" font-size="9.3774">14.0</text>
		</g>
		<g transform="translate(0,217.70833333333334)">
			<line fill="none" stroke="#CCCCCC" x1="64.887" y1="21.892" x2="59.261" y2="21.892"/>
			<text transform="matrix(1 0 0 1 38.1968 24.8932)" font-family="'ArialMT'" font-size="9.3774">14.5</text>
		</g>
		<g transform="translate(0,206.25)">
			<line fill="none" stroke="#CCCCCC" x1="64.887" y1="22.605" x2="59.261" y2="22.605"/>
			<text transform="matrix(1 0 0 1 38.1968 25.6069)" font-family="'ArialMT'" font-size="9.3774">15.0</text>
		</g>
		<g transform="translate(0,194.79166666666666)">
			<line fill="none" stroke="#CCCCCC" x1="64.887" y1="23.319" x2="59.261" y2="23.319"/>
			<text transform="matrix(1 0 0 1 38.1968 26.3206)" font-family="'ArialMT'" font-size="9.3774">15.5</text>
		</g>
		<g transform="translate(0,183.33333333333334)">
			<line fill="none" stroke="#CCCCCC" x1="64.887" y1="24.032" x2="59.261" y2="24.032"/>
			<text transform="matrix(1 0 0 1 38.1968 27.0334)" font-family="'ArialMT'" font-size="9.3774">16.0</text>
		</g>
		<g transform="translate(0,171.875)">
			<line fill="none" stroke="#CCCCCC" x1="64.887" y1="24.746" x2="59.261" y2="24.746"/>
			<text transform="matrix(1 0 0 1 38.1968 27.7471)" font-family="'ArialMT'" font-size="9.3774">16.5</text>
		</g>
		<g transform="translate(0,160.41666666666666)">
			<line fill="none" stroke="#CCCCCC" x1="64.887" y1="25.459" x2="59.261" y2="25.459"/>
			<text transform="matrix(1 0 0 1 38.1968 28.4608)" font-family="'ArialMT'" font-size="9.3774">17.0</text>
		</g>
		<g transform="translate(0,148.95833333333334)">
			<line fill="none" stroke="#CCCCCC" x1="64.887" y1="26.173" x2="59.261" y2="26.173"/>
			<text transform="matrix(1 0 0 1 38.1968 29.1735)" font-family="'ArialMT'" font-size="9.3774">17.5</text>
		</g>
		<g transform="translate(0,137.5)">
			<line fill="none" stroke="#CCCCCC" x1="64.887" y1="26.886" x2="59.261" y2="26.886"/>
			<text transform="matrix(1 0 0 1 38.1968 29.8872)" font-family="'ArialMT'" font-size="9.3774">18.0</text>
		</g>
		<g transform="translate(0,126.04166666666664)">
			<line fill="none" stroke="#CCCCCC" x1="64.887" y1="27.599" x2="59.261" y2="27.599"/>
			<text transform="matrix(1 0 0 1 38.1968 30.5999)" font-family="'ArialMT'" font-size="9.3774">18.5</text>
		</g>
		<g transform="translate(0,114.58333333333336)">
			<line fill="none" stroke="#CCCCCC" x1="64.887" y1="28.313" x2="59.261" y2="28.313"/>
			<text transform="matrix(1 0 0 1 38.1968 31.3136)" font-family="'ArialMT'" font-size="9.3774">19.0</text>
		</g>
		<g transform="translate(0,103.125)">
			<line fill="none" stroke="#CCCCCC" x1="64.887" y1="29.026" x2="59.261" y2="29.026"/>
			<text transform="matrix(1 0 0 1 38.1968 32.0273)" font-family="'ArialMT'" font-size="9.3774">19.5</text>
		</g>
		<g transform="translate(0,91.66666666666664)">
			<line fill="none" stroke="#CCCCCC" x1="64.887" y1="29.739" x2="59.261" y2="29.739"/>
			<text transform="matrix(1 0 0 1 38.1968 32.7401)" font-family="'ArialMT'" font-size="9.3774">20.0</text>
		</g>
		<g transform="translate(0,80.20833333333336)">
			<line fill="none" stroke="#CCCCCC" x1="64.887" y1="30.453" x2="59.261" y2="30.453"/>
			<text transform="matrix(1 0 0 1 38.1968 33.4538)" font-family="'ArialMT'" font-size="9.3774">20.5</text>
		</g>
		<g transform="translate(0,68.75)">
			<line fill="none" stroke="#CCCCCC" x1="64.887" y1="31.166" x2="59.261" y2="31.166"/>
			<text transform="matrix(1 0 0 1 38.1968 34.1675)" font-family="'ArialMT'" font-size="9.3774">21.0</text>
		</g>
		<g transform="translate(0,57.29166666666664)">
			<line fill="none" stroke="#CCCCCC" x1="64.887" y1="31.879" x2="59.261" y2="31.879"/>
			<text transform="matrix(1 0 0 1 38.1968 34.8802)" font-family="'ArialMT'" font-size="9.3774">21.5</text>
		</g>
		<g transform="translate(0,45.83333333333336)">
			<line fill="none" stroke="#CCCCCC" x1="64.887" y1="32.593" x2="59.261" y2="32.593"/>
			<text transform="matrix(1 0 0 1 38.1968 35.5939)" font-family="'ArialMT'" font-size="9.3774">22.0</text>
		</g>
		<g transform="translate(0,34.375)">
			<line fill="none" stroke="#CCCCCC" x1="64.887" y1="33.306" x2="59.261" y2="33.306"/>
			<text transform="matrix(1 0 0 1 38.1968 36.3076)" font-family="'ArialMT'" font-size="9.3774">22.5</text>
		</g>
		<g transform="translate(0,22.916666666666647)">
			<line fill="none" stroke="#CCCCCC" x1="64.887" y1="34.019" x2="59.261" y2="34.019"/>
			<text transform="matrix(1 0 0 1 38.1968 37.0213)" font-family="'ArialMT'" font-size="9.3774">23.0</text>
		</g>
		<g transform="translate(0,11.458333333333353)">
			<line fill="none" stroke="#CCCCCC" x1="64.887" y1="34.733" x2="59.261" y2="34.733"/>
			<text transform="matrix(1 0 0 1 38.1968 37.734)" font-family="'ArialMT'" font-size="9.3774">23.5</text>
		</g>
		<g transform="translate(0,0)">
			<line fill="none" stroke="#CCCCCC" x1="64.887" y1="35.446" x2="59.261" y2="35.446"/>
			<text transform="matrix(1 0 0 1 38.1968 38.4478)" font-family="'ArialMT'" font-size="9.3774">24.0</text>
		</g>
		<path fill="none" stroke="#CCCCCC" d="M59.261,35.446h5.626v515.758h-5.626"/>
	</g>
	<rect x="65.825" y="35.446" fill="#F09744" width="71.269" height="515.758"/>
	<rect x="144.595" y="508.225" fill="#5AD4B6" width="71.269" height="42.979"/>
	<rect x="223.366" y="508.225" fill="#7CDBE8" width="71.268" height="42.979"/>
	<rect x="302.136" y="508.225" fill="#755734" width="71.269" height="42.979"/>
	<rect x="380.906" y="508.225" fill="#DBDBDB" width="71.269" height="42.979"/>
	<rect x="459.677" y="508.225" fill="#5783C4" width="71.269" height="42.979"/>
	<rect x="538.447" y="529.714" fill="#E33151" width="71.268" height="21.49"/>
	<rect x="617.217" y="529.714" width="71.269" height="21.49"/>
	<rect x="695.987" y="529.714" fill="#808080" width="71.269" height="21.49"/>
	<g transform="translate(50,550)">
		<g transform="translate(39,0)">
			<line fill="none" stroke="#CCCCCC" x1="12.459" y1="1.204" x2="12.459" y2="6.831"/>
			<text transform="matrix(1 0 0 1 -3.96 16.3018)" font-family="'ArialMT'" font-size="9.3774">Naranjo</text>
		</g>
		<g transform="translate(123,0)">
			<line fill="none" stroke="#CCCCCC" x1="7.229" y1="1.204" x2="7.229" y2="6.831"/>
			<text transform="matrix(1 0 0 1 -12.4038 16.3018)" font-family="'ArialMT'" font-size="9.3774">Turquesa</text>
		</g>
		<g transform="translate(207,0)">
			<line fill="none" stroke="#CCCCCC" x1="2" y1="1.204" x2="2" y2="6.831"/>
			<text transform="matrix(1 0 0 1 -13.8975 16.3018)" font-family="'ArialMT'" font-size="9.3774">Celeste</text>
		</g>
		<g transform="translate(291,0)">
			<line fill="none" stroke="#CCCCCC" x1="-3.23" y1="1.204" x2="-3.23" y2="6.831"/>
			<text transform="matrix(1 0 0 1 -13.1333 16.3018)" font-family="'ArialMT'" font-size="9.3774">Cafe</text>
		</g>
		<g transform="translate(375,0)">
			<line fill="none" stroke="#CCCCCC" x1="-8.459" y1="1.204" x2="-8.459" y2="6.831"/>
			<text transform="matrix(1 0 0 1 -22.7959 16.3018)" font-family="'ArialMT'" font-size="9.3774">Blanco</text>
		</g>
		<g transform="translate(459,0)">
			<line fill="none" stroke="#CCCCCC" x1="-13.689" y1="1.204" x2="-13.689" y2="6.831"/>
			<text transform="matrix(1 0 0 1 -22.8096 16.3018)" font-family="'ArialMT'" font-size="9.3774">Azul</text>
		</g>
		<g transform="translate(543,0)">
			<line fill="none" stroke="#CCCCCC" x1="-18.919" y1="1.204" x2="-18.919" y2="6.831"/>
			<text transform="matrix(1 0 0 1 -28.5615 16.3018)" font-family="'ArialMT'" font-size="9.3774">Rojo</text>
		</g>
		<g transform="translate(627,0)">
			<line fill="none" stroke="#CCCCCC" x1="-24.148" y1="1.204" x2="-24.148" y2="6.831"/>
			<text transform="matrix(1 0 0 1 -36.918 16.3018)" font-family="'ArialMT'" font-size="9.3774">Negro</text>
		</g>
		<g transform="translate(711,0)">
			<line fill="none" stroke="#CCCCCC" x1="-29.378" y1="1.204" x2="-29.378" y2="6.831"/>
			<text transform="matrix(1 0 0 1 -37.9717 16.3018)" font-family="'ArialMT'" font-size="9.3774">Gris</text>
		</g>
		<path fill="none" stroke="#CCCCCC" d="M14.887,6.831V1.204h703.306v5.627"/>
	</g>
</g>
</svg>
