<?xml version="1.0" encoding="utf-8"?>
<!-- Generator: Adobe Illustrator 16.0.0, SVG Export Plug-In . SVG Version: 6.00 Build 0)  -->
<!DOCTYPE svg PUBLIC "-//W3C//DTD SVG 1.1//EN" "http://www.w3.org/Graphics/SVG/1.1/DTD/svg11.dtd">
<svg version="1.1" id="Layer_1" xmlns="http://www.w3.org/2000/svg" xmlns:xlink="http://www.w3.org/1999/xlink" x="0px" y="0px"
	 width="800px" height="600px" viewBox="0 0 800 600" enable-background="new 0 0 800 600" xml:space="preserve">
<g transform="translate(0,0)">
	<g transform="translate(0,550)">
		<line fill="none" stroke="#CCCCCC" x1="64.104" y1="5.121" x2="58.451" y2="5.121"/>
		<text transform="matrix(1 0 0 1 50.3857 8.1357)" font-family="'ArialMT'" font-size="9.4207">0</text>
	</g>
	<g transform="translate(0,532.8125)">
		<line fill="none" stroke="#CCCCCC" x1="64.104" y1="6.116" x2="58.451" y2="6.116"/>
		<text transform="matrix(1 0 0 1 50.3857 9.1318)" font-family="'ArialMT'" font-size="9.4207">1</text>
	</g>
	<g transform="translate(0,515.625)">
		<line fill="none" stroke="#CCCCCC" x1="64.104" y1="7.112" x2="58.451" y2="7.112"/>
		<text transform="matrix(1 0 0 1 50.3857 10.1279)" font-family="'ArialMT'" font-size="9.4207">2</text>
	</g>
	<g transform="translate(0,498.4375)">
		<line fill="none" stroke="#CCCCCC" x1="64.104" y1="8.108" x2="58.451" y2="8.108"/>
		<text transform="matrix(1 0 0 1 50.3857 11.123)" font-family="'ArialMT'" font-size="9.4207">3</text>
	</g>
	<g transform="translate(0,481.25)">
		<line fill="none" stroke="#CCCCCC" x1="64.104" y1="9.104" x2="58.451" y2="9.104"/>
		<text transform="matrix(1 0 0 1 50.3857 12.1191)" font-family="'ArialMT'" font-size="9.4207">4</text>
	</g>
	<g transform="translate(0,464.0625)">
		<line fill="none" stroke="#CCCCCC" x1="64.104" y1="10.1" x2="58.451" y2="10.1"/>
		<text transform="matrix(1 0 0 1 50.3857 13.1152)" font-family="'ArialMT'" font-size="9.4207">5</text>
	</g>
	<g transform="translate(0,446.875)">
		<line fill="none" stroke="#CCCCCC" x1="64.104" y1="11.096" x2="58.451" y2="11.096"/>
		<text transform="matrix(1 0 0 1 50.3857 14.1104)" font-family="'ArialMT'" font-size="9.4207">6</text>
	</g>
	<g transform="translate(0,429.6875)">
		<line fill="none" stroke="#CCCCCC" x1="64.104" y1="12.091" x2="58.451" y2="12.091"/>
		<text transform="matrix(1 0 0 1 50.3857 15.1064)" font-family="'ArialMT'" font-size="9.4207">7</text>
	</g>
	<g transform="translate(0,412.5)">
		<line fill="none" stroke="#CCCCCC" x1="64.104" y1="13.087" x2="58.451" y2="13.087"/>
		<text transform="matrix(1 0 0 1 50.3857 16.1025)" font-family="'ArialMT'" font-size="9.4207">8</text>
	</g>
	<g transform="translate(0,395.3125)">
		<line fill="none" stroke="#CCCCCC" x1="64.104" y1="14.083" x2="58.451" y2="14.083"/>
		<text transform="matrix(1 0 0 1 50.3857 17.0977)" font-family="'ArialMT'" font-size="9.4207">9</text>
	</g>
	<g transform="translate(0,378.125)">
		<line fill="none" stroke="#CCCCCC" x1="64.104" y1="15.078" x2="58.451" y2="15.078"/>
		<text transform="matrix(1 0 0 1 45.1465 18.0938)" font-family="'ArialMT'" font-size="9.4207">10</text>
	</g>
	<g transform="translate(0,360.9375)">
		<line fill="none" stroke="#CCCCCC" x1="64.104" y1="16.074" x2="58.451" y2="16.074"/>
		<text transform="matrix(1 0 0 1 45.8457 19.0889)" font-family="'ArialMT'" font-size="9.4207">11</text>
	</g>
	<g transform="translate(0,343.75)">
		<line fill="none" stroke="#CCCCCC" x1="64.104" y1="17.07" x2="58.451" y2="17.07"/>
		<text transform="matrix(1 0 0 1 45.1465 20.085)" font-family="'ArialMT'" font-size="9.4207">12</text>
	</g>
	<g transform="translate(0,326.5625)">
		<line fill="none" stroke="#CCCCCC" x1="64.104" y1="18.065" x2="58.451" y2="18.065"/>
		<text transform="matrix(1 0 0 1 45.1465 21.0811)" font-family="'ArialMT'" font-size="9.4207">13</text>
	</g>
	<g transform="translate(0,309.375)">
		<line fill="none" stroke="#CCCCCC" x1="64.104" y1="19.062" x2="58.451" y2="19.062"/>
		<text transform="matrix(1 0 0 1 45.1465 22.0762)" font-family="'ArialMT'" font-size="9.4207">14</text>
	</g>
	<g transform="translate(0,292.1875)">
		<line fill="none" stroke="#CCCCCC" x1="64.104" y1="20.058" x2="58.451" y2="20.058"/>
		<text transform="matrix(1 0 0 1 45.1465 23.0723)" font-family="'ArialMT'" font-size="9.4207">15</text>
	</g>
	<g transform="translate(0,275)">
		<line fill="none" stroke="#CCCCCC" x1="64.104" y1="21.053" x2="58.451" y2="21.053"/>
		<text transform="matrix(1 0 0 1 45.1465 24.0679)" font-family="'ArialMT'" font-size="9.4207">16</text>
	</g>
	<g transform="translate(0,257.8125)">
		<line fill="none" stroke="#CCCCCC" x1="64.104" y1="22.049" x2="58.451" y2="22.049"/>
		<text transform="matrix(1 0 0 1 45.1465 25.064)" font-family="'ArialMT'" font-size="9.4207">17</text>
	</g>
	<g transform="translate(0,240.625)">
		<line fill="none" stroke="#CCCCCC" x1="64.104" y1="23.044" x2="58.451" y2="23.044"/>
		<text transform="matrix(1 0 0 1 45.1465 26.0596)" font-family="'ArialMT'" font-size="9.4207">18</text>
	</g>
	<g transform="translate(0,223.4375)">
		<line fill="none" stroke="#CCCCCC" x1="64.104" y1="24.04" x2="58.451" y2="24.04"/>
		<text transform="matrix(1 0 0 1 45.1465 27.0552)" font-family="'ArialMT'" font-size="9.4207">19</text>
	</g>
	<g transform="translate(0,206.25)">
		<line fill="none" stroke="#CCCCCC" x1="64.104" y1="25.036" x2="58.451" y2="25.036"/>
		<text transform="matrix(1 0 0 1 45.1465 28.0513)" font-family="'ArialMT'" font-size="9.4207">20</text>
	</g>
	<g transform="translate(0,189.0625)">
		<line fill="none" stroke="#CCCCCC" x1="64.104" y1="26.032" x2="58.451" y2="26.032"/>
		<text transform="matrix(1 0 0 1 45.1465 29.0469)" font-family="'ArialMT'" font-size="9.4207">21</text>
	</g>
	<g transform="translate(0,171.875)">
		<line fill="none" stroke="#CCCCCC" x1="64.104" y1="27.027" x2="58.451" y2="27.027"/>
		<text transform="matrix(1 0 0 1 45.1465 30.0425)" font-family="'ArialMT'" font-size="9.4207">22</text>
	</g>
	<g transform="translate(0,154.6875)">
		<line fill="none" stroke="#CCCCCC" x1="64.104" y1="28.023" x2="58.451" y2="28.023"/>
		<text transform="matrix(1 0 0 1 45.1465 31.0386)" font-family="'ArialMT'" font-size="9.4207">23</text>
	</g>
	<g transform="translate(0,137.5)">
		<line fill="none" stroke="#CCCCCC" x1="64.104" y1="29.019" x2="58.451" y2="29.019"/>
		<text transform="matrix(1 0 0 1 45.1465 32.0342)" font-family="'ArialMT'" font-size="9.4207">24</text>
	</g>
	<g transform="translate(0,120.3125)">
		<line fill="none" stroke="#CCCCCC" x1="64.104" y1="30.015" x2="58.451" y2="30.015"/>
		<text transform="matrix(1 0 0 1 45.1465 33.0298)" font-family="'ArialMT'" font-size="9.4207">25</text>
	</g>
	<g transform="translate(0,103.125)">
		<line fill="none" stroke="#CCCCCC" x1="64.104" y1="31.01" x2="58.451" y2="31.01"/>
		<text transform="matrix(1 0 0 1 45.1465 34.0259)" font-family="'ArialMT'" font-size="9.4207">26</text>
	</g>
	<g transform="translate(0,85.9375)">
		<line fill="none" stroke="#CCCCCC" x1="64.104" y1="32.006" x2="58.451" y2="32.006"/>
		<text transform="matrix(1 0 0 1 45.1465 35.0215)" font-family="'ArialMT'" font-size="9.4207">27</text>
	</g>
	<g transform="translate(0,68.75)">
		<line fill="none" stroke="#CCCCCC" x1="64.104" y1="33.002" x2="58.451" y2="33.002"/>
		<text transform="matrix(1 0 0 1 45.1465 36.0171)" font-family="'ArialMT'" font-size="9.4207">28</text>
	</g>
	<g transform="translate(0,51.5625)">
		<line fill="none" stroke="#CCCCCC" x1="64.104" y1="33.998" x2="58.451" y2="33.998"/>
		<text transform="matrix(1 0 0 1 45.1465 37.0127)" font-family="'ArialMT'" font-size="9.4207">29</text>
	</g>
	<g transform="translate(0,34.375)">
		<line fill="none" stroke="#CCCCCC" x1="64.104" y1="34.994" x2="58.451" y2="34.994"/>
		<text transform="matrix(1 0 0 1 45.1465 38.0088)" font-family="'ArialMT'" font-size="9.4207">30</text>
	</g>
	<g transform="translate(0,17.1875)">
		<line fill="none" stroke="#CCCCCC" x1="64.104" y1="35.989" x2="58.451" y2="35.989"/>
		<text transform="matrix(1 0 0 1 45.1465 39.0044)" font-family="'ArialMT'" font-size="9.4207">31</text>
	</g>
	<g transform="translate(0,0)">
		<line fill="none" stroke="#CCCCCC" x1="64.104" y1="36.985" x2="58.451" y2="36.985"/>
		<text transform="matrix(1 0 0 1 45.1465 40)" font-family="'ArialMT'" font-size="9.4207">32</text>
	</g>
	<path fill="none" stroke="#CCCCCC" d="M58.451,36.985h5.653v518.136h-5.653"/>
</g>
<rect x="65.045" y="36.985" fill="#5260E0" width="218.559" height="518.136"/>
<rect x="308.098" y="474.162" fill="#8CE0E0" width="218.559" height="80.959"/>
<rect x="551.151" y="538.929" width="218.559" height="16.192"/>
<g transform="translate(50,550)">
	<g transform="translate(117,0)">
		<line fill="none" stroke="#CCCCCC" x1="7.325" y1="5.121" x2="7.325" y2="10.773"/>
		<text transform="matrix(1 0 0 1 -1.3154 20.2881)" font-family="'ArialMT'" font-size="9.4207">azul</text>
	</g>
	<g transform="translate(375,0)">
		<line fill="none" stroke="#CCCCCC" x1="-7.622" y1="5.121" x2="-7.622" y2="10.773"/>
		<text transform="matrix(1 0 0 1 -22.5459 20.2881)" font-family="'ArialMT'" font-size="9.4207">celeste</text>
	</g>
	<g transform="translate(633,0)">
		<line fill="none" stroke="#CCCCCC" x1="-22.569" y1="5.121" x2="-22.569" y2="10.773"/>
		<text transform="matrix(1 0 0 1 -34.6162 20.2881)" font-family="'ArialMT'" font-size="9.4207">negro</text>
	</g>
	<path fill="none" stroke="#CCCCCC" d="M14.104,10.773V5.121h706.549v5.652"/>
</g>
</svg>
