<?xml version="1.0" encoding="utf-8"?>
<!-- Generator: Adobe Illustrator 16.0.0, SVG Export Plug-In . SVG Version: 6.00 Build 0)  -->
<!DOCTYPE svg PUBLIC "-//W3C//DTD SVG 1.1//EN" "http://www.w3.org/Graphics/SVG/1.1/DTD/svg11.dtd">
<svg version="1.1" id="Layer_1" xmlns="http://www.w3.org/2000/svg" xmlns:xlink="http://www.w3.org/1999/xlink" x="0px" y="0px"
	 width="800px" height="600px" viewBox="0 0 800 600" enable-background="new 0 0 800 600" xml:space="preserve">
<g>
	<g transform="translate(0,0)">
		<g transform="translate(0,550)">
			<line fill="none" stroke="#CCCCCC" x1="66.47" y1="1.486" x2="60.93" y2="1.486"/>
			<text transform="matrix(1 0 0 1 45.3271 4.4404)" font-family="'ArialMT'" font-size="9.2319">0.0</text>
		</g>
		<g transform="translate(0,534.2857142857143)">
			<line fill="none" stroke="#CCCCCC" x1="66.47" y1="2.694" x2="60.93" y2="2.694"/>
			<text transform="matrix(1 0 0 1 45.3271 5.6469)" font-family="'ArialMT'" font-size="9.2319">0.2</text>
		</g>
		<g transform="translate(0,518.5714285714286)">
			<line fill="none" stroke="#CCCCCC" x1="66.47" y1="3.9" x2="60.93" y2="3.9"/>
			<text transform="matrix(1 0 0 1 45.3271 6.8544)" font-family="'ArialMT'" font-size="9.2319">0.4</text>
		</g>
		<g transform="translate(0,502.85714285714283)">
			<line fill="none" stroke="#CCCCCC" x1="66.47" y1="5.108" x2="60.93" y2="5.108"/>
			<text transform="matrix(1 0 0 1 45.3271 8.0618)" font-family="'ArialMT'" font-size="9.2319">0.6</text>
		</g>
		<g transform="translate(0,487.1428571428571)">
			<line fill="none" stroke="#CCCCCC" x1="66.47" y1="6.314" x2="60.93" y2="6.314"/>
			<text transform="matrix(1 0 0 1 45.3271 9.2683)" font-family="'ArialMT'" font-size="9.2319">0.8</text>
		</g>
		<g transform="translate(0,471.42857142857144)">
			<line fill="none" stroke="#CCCCCC" x1="66.47" y1="7.522" x2="60.93" y2="7.522"/>
			<text transform="matrix(1 0 0 1 45.3271 10.4757)" font-family="'ArialMT'" font-size="9.2319">1.0</text>
		</g>
		<g transform="translate(0,455.71428571428567)">
			<line fill="none" stroke="#CCCCCC" x1="66.47" y1="8.728" x2="60.93" y2="8.728"/>
			<text transform="matrix(1 0 0 1 45.3271 11.6822)" font-family="'ArialMT'" font-size="9.2319">1.2</text>
		</g>
		<g transform="translate(0,440)">
			<line fill="none" stroke="#CCCCCC" x1="66.47" y1="9.936" x2="60.93" y2="9.936"/>
			<text transform="matrix(1 0 0 1 45.3271 12.8896)" font-family="'ArialMT'" font-size="9.2319">1.4</text>
		</g>
		<g transform="translate(0,424.2857142857142)">
			<line fill="none" stroke="#CCCCCC" x1="66.47" y1="11.143" x2="60.93" y2="11.143"/>
			<text transform="matrix(1 0 0 1 45.3271 14.0961)" font-family="'ArialMT'" font-size="9.2319">1.6</text>
		</g>
		<g transform="translate(0,408.5714285714286)">
			<line fill="none" stroke="#CCCCCC" x1="66.47" y1="12.349" x2="60.93" y2="12.349"/>
			<text transform="matrix(1 0 0 1 45.3271 15.3036)" font-family="'ArialMT'" font-size="9.2319">1.8</text>
		</g>
		<g transform="translate(0,392.8571428571429)">
			<line fill="none" stroke="#CCCCCC" x1="66.47" y1="13.557" x2="60.93" y2="13.557"/>
			<text transform="matrix(1 0 0 1 45.3271 16.511)" font-family="'ArialMT'" font-size="9.2319">2.0</text>
		</g>
		<g transform="translate(0,377.14285714285717)">
			<line fill="none" stroke="#CCCCCC" x1="66.47" y1="14.763" x2="60.93" y2="14.763"/>
			<text transform="matrix(1 0 0 1 45.3271 17.7175)" font-family="'ArialMT'" font-size="9.2319">2.2</text>
		</g>
		<g transform="translate(0,361.42857142857144)">
			<line fill="none" stroke="#CCCCCC" x1="66.47" y1="15.971" x2="60.93" y2="15.971"/>
			<text transform="matrix(1 0 0 1 45.3271 18.925)" font-family="'ArialMT'" font-size="9.2319">2.4</text>
		</g>
		<g transform="translate(0,345.7142857142857)">
			<line fill="none" stroke="#CCCCCC" x1="66.47" y1="17.178" x2="60.93" y2="17.178"/>
			<text transform="matrix(1 0 0 1 45.3271 20.1314)" font-family="'ArialMT'" font-size="9.2319">2.6</text>
		</g>
		<g transform="translate(0,330.00000000000006)">
			<line fill="none" stroke="#CCCCCC" x1="66.47" y1="18.385" x2="60.93" y2="18.385"/>
			<text transform="matrix(1 0 0 1 45.3271 21.3389)" font-family="'ArialMT'" font-size="9.2319">2.8</text>
		</g>
		<g transform="translate(0,314.2857142857143)">
			<line fill="none" stroke="#CCCCCC" x1="66.47" y1="19.591" x2="60.93" y2="19.591"/>
			<text transform="matrix(1 0 0 1 45.3271 22.5453)" font-family="'ArialMT'" font-size="9.2319">3.0</text>
		</g>
		<g transform="translate(0,298.57142857142856)">
			<line fill="none" stroke="#CCCCCC" x1="66.47" y1="20.799" x2="60.93" y2="20.799"/>
			<text transform="matrix(1 0 0 1 45.3271 23.7528)" font-family="'ArialMT'" font-size="9.2319">3.2</text>
		</g>
		<g transform="translate(0,282.85714285714283)">
			<line fill="none" stroke="#CCCCCC" x1="66.47" y1="22.005" x2="60.93" y2="22.005"/>
			<text transform="matrix(1 0 0 1 45.3271 24.9602)" font-family="'ArialMT'" font-size="9.2319">3.4</text>
		</g>
		<g transform="translate(0,267.1428571428571)">
			<line fill="none" stroke="#CCCCCC" x1="66.47" y1="23.213" x2="60.93" y2="23.213"/>
			<text transform="matrix(1 0 0 1 45.3271 26.1662)" font-family="'ArialMT'" font-size="9.2319">3.6</text>
		</g>
		<g transform="translate(0,251.42857142857144)">
			<line fill="none" stroke="#CCCCCC" x1="66.47" y1="24.42" x2="60.93" y2="24.42"/>
			<text transform="matrix(1 0 0 1 45.3271 27.3737)" font-family="'ArialMT'" font-size="9.2319">3.8</text>
		</g>
		<g transform="translate(0,235.71428571428572)">
			<line fill="none" stroke="#CCCCCC" x1="66.47" y1="25.627" x2="60.93" y2="25.627"/>
			<text transform="matrix(1 0 0 1 45.3271 28.5802)" font-family="'ArialMT'" font-size="9.2319">4.0</text>
		</g>
		<g transform="translate(0,220)">
			<line fill="none" stroke="#CCCCCC" x1="66.47" y1="26.833" x2="60.93" y2="26.833"/>
			<text transform="matrix(1 0 0 1 45.3271 29.7876)" font-family="'ArialMT'" font-size="9.2319">4.2</text>
		</g>
		<g transform="translate(0,204.28571428571422)">
			<line fill="none" stroke="#CCCCCC" x1="66.47" y1="28.04" x2="60.93" y2="28.04"/>
			<text transform="matrix(1 0 0 1 45.3271 30.9941)" font-family="'ArialMT'" font-size="9.2319">4.4</text>
		</g>
		<g transform="translate(0,188.57142857142858)">
			<line fill="none" stroke="#CCCCCC" x1="66.47" y1="29.247" x2="60.93" y2="29.247"/>
			<text transform="matrix(1 0 0 1 45.3271 32.2015)" font-family="'ArialMT'" font-size="9.2319">4.6</text>
		</g>
		<g transform="translate(0,172.85714285714286)">
			<line fill="none" stroke="#CCCCCC" x1="66.47" y1="30.454" x2="60.93" y2="30.454"/>
			<text transform="matrix(1 0 0 1 45.3271 33.409)" font-family="'ArialMT'" font-size="9.2319">4.8</text>
		</g>
		<g transform="translate(0,157.14285714285714)">
			<line fill="none" stroke="#CCCCCC" x1="66.47" y1="31.662" x2="60.93" y2="31.662"/>
			<text transform="matrix(1 0 0 1 45.3271 34.6154)" font-family="'ArialMT'" font-size="9.2319">5.0</text>
		</g>
		<g transform="translate(0,141.42857142857142)">
			<line fill="none" stroke="#CCCCCC" x1="66.47" y1="32.869" x2="60.93" y2="32.869"/>
			<text transform="matrix(1 0 0 1 45.3271 35.8229)" font-family="'ArialMT'" font-size="9.2319">5.2</text>
		</g>
		<g transform="translate(0,125.7142857142857)">
			<line fill="none" stroke="#CCCCCC" x1="66.47" y1="34.076" x2="60.93" y2="34.076"/>
			<text transform="matrix(1 0 0 1 45.3271 37.0294)" font-family="'ArialMT'" font-size="9.2319">5.4</text>
		</g>
		<g transform="translate(0,110.00000000000004)">
			<line fill="none" stroke="#CCCCCC" x1="66.47" y1="35.283" x2="60.93" y2="35.283"/>
			<text transform="matrix(1 0 0 1 45.3271 38.2368)" font-family="'ArialMT'" font-size="9.2319">5.6</text>
		</g>
		<g transform="translate(0,94.28571428571432)">
			<line fill="none" stroke="#CCCCCC" x1="66.47" y1="36.49" x2="60.93" y2="36.49"/>
			<text transform="matrix(1 0 0 1 45.3271 39.4433)" font-family="'ArialMT'" font-size="9.2319">5.8</text>
		</g>
		<g transform="translate(0,78.5714285714286)">
			<line fill="none" stroke="#CCCCCC" x1="66.47" y1="37.697" x2="60.93" y2="37.697"/>
			<text transform="matrix(1 0 0 1 45.3271 40.6508)" font-family="'ArialMT'" font-size="9.2319">6.0</text>
		</g>
		<g transform="translate(0,62.85714285714282)">
			<line fill="none" stroke="#CCCCCC" x1="66.47" y1="38.904" x2="60.93" y2="38.904"/>
			<text transform="matrix(1 0 0 1 45.3271 41.8582)" font-family="'ArialMT'" font-size="9.2319">6.2</text>
		</g>
		<g transform="translate(0,47.142857142857096)">
			<line fill="none" stroke="#CCCCCC" x1="66.47" y1="40.111" x2="60.93" y2="40.111"/>
			<text transform="matrix(1 0 0 1 45.3271 43.0647)" font-family="'ArialMT'" font-size="9.2319">6.4</text>
		</g>
		<g transform="translate(0,31.428571428571438)">
			<line fill="none" stroke="#CCCCCC" x1="66.47" y1="41.318" x2="60.93" y2="41.318"/>
			<text transform="matrix(1 0 0 1 45.3271 44.2721)" font-family="'ArialMT'" font-size="9.2319">6.6</text>
		</g>
		<g transform="translate(0,15.714285714285719)">
			<line fill="none" stroke="#CCCCCC" x1="66.47" y1="42.525" x2="60.93" y2="42.525"/>
			<text transform="matrix(1 0 0 1 45.3271 45.4786)" font-family="'ArialMT'" font-size="9.2319">6.8</text>
		</g>
		<g transform="translate(0,0)">
			<line fill="none" stroke="#CCCCCC" x1="66.47" y1="43.732" x2="60.93" y2="43.732"/>
			<text transform="matrix(1 0 0 1 45.3271 46.686)" font-family="'ArialMT'" font-size="9.2319">7.0</text>
		</g>
		<path fill="none" stroke="#CCCCCC" d="M60.93,43.732h5.54v507.754h-5.54"/>
	</g>
	<rect x="66.47" y="43.732" fill="#BF6969" width="52.622" height="507.754"/>
	<rect x="124.63" y="261.341" fill="#BF9469" width="52.622" height="290.146"/>
	<rect x="182.792" y="261.341" fill="#BFBF69" width="52.622" height="290.146"/>
	<rect x="240.952" y="333.877" fill="#94BF69" width="52.622" height="217.609"/>
	<rect x="299.113" y="333.877" fill="#69BF69" width="52.622" height="217.609"/>
	<rect x="357.274" y="333.877" fill="#69BF94" width="52.622" height="217.609"/>
	<rect x="415.436" y="333.877" fill="#69BFBF" width="52.621" height="217.609"/>
	<rect x="473.596" y="333.877" fill="#6994BF" width="52.623" height="217.609"/>
	<rect x="531.758" y="333.877" fill="#6969BF" width="52.621" height="217.609"/>
	<rect x="589.918" y="406.414" fill="#9469BF" width="52.621" height="145.072"/>
	<rect x="648.078" y="478.95" fill="#BF69BF" width="52.623" height="72.536"/>
	<rect x="706.24" y="478.95" fill="#BF6994" width="52.621" height="72.536"/>
	<g transform="translate(28.5,0)">
		<line fill="none" stroke="#CCCCCC" x1="64.28" y1="551.486" x2="64.28" y2="557.025"/>
		<text transform="matrix(1 0 0 1 46.0601 566.3486)" font-family="'ArialMT'" font-size="9.2319">Dualidad</text>
	</g>
	<g transform="translate(91.5,0)">
		<line fill="none" stroke="#CCCCCC" x1="59.441" y1="561.688" x2="59.441" y2="567.227"/>
		<text transform="matrix(1 0 0 1 26.084 576.5498)" font-family="'ArialMT'" font-size="9.2319">Desdoblamiento</text>
	</g>
	<g transform="translate(154.5,0)">
		<line fill="none" stroke="#CCCCCC" x1="54.602" y1="551.486" x2="54.602" y2="557.025"/>
		<text transform="matrix(1 0 0 1 34.5903 566.3486)" font-family="'ArialMT'" font-size="9.2319">Contraste</text>
	</g>
	<g transform="translate(217.5,0)">
		<line fill="none" stroke="#CCCCCC" x1="49.763" y1="561.688" x2="49.763" y2="567.227"/>
		<text transform="matrix(1 0 0 1 28.7212 576.5498)" font-family="'ArialMT'" font-size="9.2319">Encuentro</text>
	</g>
	<g transform="translate(280.5,0)">
		<line fill="none" stroke="#CCCCCC" x1="44.924" y1="551.486" x2="44.924" y2="557.025"/>
		<text transform="matrix(1 0 0 1 5.5762 566.3486)" font-family="'ArialMT'" font-size="9.2319">Vuelta a la realidad</text>
	</g>
	<g transform="translate(343.5,0)">
		<line fill="none" stroke="#CCCCCC" x1="40.085" y1="561.688" x2="40.085" y2="567.227"/>
		<text transform="matrix(1 0 0 1 19.8184 576.5498)" font-family="'ArialMT'" font-size="9.2319">Despertar</text>
	</g>
	<g transform="translate(406.5,0)">
		<line fill="none" stroke="#CCCCCC" x1="35.246" y1="551.486" x2="35.246" y2="557.025"/>
		<text transform="matrix(1 0 0 1 3.3516 566.3486)" font-family="'ArialMT'" font-size="9.2319">Transformacion</text>
	</g>
	<g transform="translate(469.5,0)">
		<line fill="none" stroke="#CCCCCC" x1="30.406" y1="561.688" x2="30.406" y2="567.227"/>
		<text transform="matrix(1 0 0 1 -1.6602 576.5498)" font-family="'ArialMT'" font-size="9.2319">Descubrimiento</text>
	</g>
	<g transform="translate(532.5,0)">
		<line fill="none" stroke="#CCCCCC" x1="25.568" y1="551.486" x2="25.568" y2="557.025"/>
		<text transform="matrix(1 0 0 1 6.3242 566.3486)" font-family="'ArialMT'" font-size="9.2319">Reflexion</text>
	</g>
	<g transform="translate(595.5,0)">
		<line fill="none" stroke="#CCCCCC" x1="20.729" y1="551.486" x2="20.729" y2="557.025"/>
		<text transform="matrix(1 0 0 1 -8.0098 566.3486)" font-family="'ArialMT'" font-size="9.2319">Confrontacion</text>
	</g>
	<g transform="translate(658.5,0)">
		<line fill="none" stroke="#CCCCCC" x1="15.891" y1="551.486" x2="15.891" y2="557.025"/>
		<text transform="matrix(1 0 0 1 -0.0156 566.3486)" font-family="'ArialMT'" font-size="9.2319">Cambio</text>
	</g>
	<g transform="translate(721.5,0)">
		<line fill="none" stroke="#CCCCCC" x1="11.051" y1="551.486" x2="11.051" y2="557.025"/>
		<text transform="matrix(1 0 0 1 -3.3223 566.3486)" font-family="'ArialMT'" font-size="9.2319">Anhelo</text>
	</g>
	<path fill="none" stroke="#CCCCCC" d="M66.47,557.025v-5.539h692.392v5.539"/>
</g>
</svg>
