<?xml version="1.0" encoding="utf-8"?>
<!-- Generator: Adobe Illustrator 16.0.0, SVG Export Plug-In . SVG Version: 6.00 Build 0)  -->
<!DOCTYPE svg PUBLIC "-//W3C//DTD SVG 1.1//EN" "http://www.w3.org/Graphics/SVG/1.1/DTD/svg11.dtd">
<svg version="1.1" id="Layer_1" xmlns="http://www.w3.org/2000/svg" xmlns:xlink="http://www.w3.org/1999/xlink" x="0px" y="0px"
	 width="800px" height="600px" viewBox="0 0 800 600" enable-background="new 0 0 800 600" xml:space="preserve">
<g>
	<g transform="translate(0,0)">
		<g transform="translate(0,550)">
			<line fill="none" stroke="#CCCCCC" x1="51.74" y1="1.212" x2="46.115" y2="1.212"/>
			<text transform="matrix(1 0 0 1 38.0898 4.2109)" font-family="'ArialMT'" font-size="9.3736">0</text>
		</g>
		<g transform="translate(0,531.0344827586207)">
			<line fill="none" stroke="#CCCCCC" x1="51.74" y1="2.399" x2="46.115" y2="2.399"/>
			<text transform="matrix(1 0 0 1 38.0898 5.3991)" font-family="'ArialMT'" font-size="9.3736">1</text>
		</g>
		<g transform="translate(0,512.0689655172414)">
			<line fill="none" stroke="#CCCCCC" x1="51.74" y1="3.588" x2="46.115" y2="3.588"/>
			<text transform="matrix(1 0 0 1 38.0898 6.5863)" font-family="'ArialMT'" font-size="9.3736">2</text>
		</g>
		<g transform="translate(0,493.1034482758621)">
			<line fill="none" stroke="#CCCCCC" x1="51.74" y1="4.775" x2="46.115" y2="4.775"/>
			<text transform="matrix(1 0 0 1 38.0898 7.7745)" font-family="'ArialMT'" font-size="9.3736">3</text>
		</g>
		<g transform="translate(0,474.13793103448273)">
			<line fill="none" stroke="#CCCCCC" x1="51.74" y1="5.964" x2="46.115" y2="5.964"/>
			<text transform="matrix(1 0 0 1 38.0898 8.9626)" font-family="'ArialMT'" font-size="9.3736">4</text>
		</g>
		<g transform="translate(0,455.17241379310343)">
			<line fill="none" stroke="#CCCCCC" x1="51.74" y1="7.152" x2="46.115" y2="7.152"/>
			<text transform="matrix(1 0 0 1 38.0898 10.1498)" font-family="'ArialMT'" font-size="9.3736">5</text>
		</g>
		<g transform="translate(0,436.2068965517241)">
			<line fill="none" stroke="#CCCCCC" x1="51.74" y1="8.34" x2="46.115" y2="8.34"/>
			<text transform="matrix(1 0 0 1 38.0898 11.339)" font-family="'ArialMT'" font-size="9.3736">6</text>
		</g>
		<g transform="translate(0,417.2413793103448)">
			<line fill="none" stroke="#CCCCCC" x1="51.74" y1="9.527" x2="46.115" y2="9.527"/>
			<text transform="matrix(1 0 0 1 38.0898 12.5262)" font-family="'ArialMT'" font-size="9.3736">7</text>
		</g>
		<g transform="translate(0,398.2758620689655)">
			<line fill="none" stroke="#CCCCCC" x1="51.74" y1="10.715" x2="46.115" y2="10.715"/>
			<text transform="matrix(1 0 0 1 38.0898 13.7144)" font-family="'ArialMT'" font-size="9.3736">8</text>
		</g>
		<g transform="translate(0,379.3103448275862)">
			<line fill="none" stroke="#CCCCCC" x1="51.74" y1="11.904" x2="46.115" y2="11.904"/>
			<text transform="matrix(1 0 0 1 38.0898 14.9026)" font-family="'ArialMT'" font-size="9.3736">9</text>
		</g>
		<g transform="translate(0,360.34482758620686)">
			<line fill="none" stroke="#CCCCCC" x1="51.74" y1="13.092" x2="46.115" y2="13.092"/>
			<text transform="matrix(1 0 0 1 32.8765 16.0907)" font-family="'ArialMT'" font-size="9.3736">10</text>
		</g>
		<g transform="translate(0,341.3793103448276)">
			<line fill="none" stroke="#CCCCCC" x1="51.74" y1="14.279" x2="46.115" y2="14.279"/>
			<text transform="matrix(1 0 0 1 33.5723 17.2779)" font-family="'ArialMT'" font-size="9.3736">11</text>
		</g>
		<g transform="translate(0,322.4137931034483)">
			<line fill="none" stroke="#CCCCCC" x1="51.74" y1="15.468" x2="46.115" y2="15.468"/>
			<text transform="matrix(1 0 0 1 32.8765 18.4671)" font-family="'ArialMT'" font-size="9.3736">12</text>
		</g>
		<g transform="translate(0,303.44827586206895)">
			<line fill="none" stroke="#CCCCCC" x1="51.74" y1="16.655" x2="46.115" y2="16.655"/>
			<text transform="matrix(1 0 0 1 32.8765 19.6543)" font-family="'ArialMT'" font-size="9.3736">13</text>
		</g>
		<g transform="translate(0,284.4827586206896)">
			<line fill="none" stroke="#CCCCCC" x1="51.74" y1="17.843" x2="46.115" y2="17.843"/>
			<text transform="matrix(1 0 0 1 32.8765 20.8424)" font-family="'ArialMT'" font-size="9.3736">14</text>
		</g>
		<g transform="translate(0,265.51724137931035)">
			<line fill="none" stroke="#CCCCCC" x1="51.74" y1="19.031" x2="46.115" y2="19.031"/>
			<text transform="matrix(1 0 0 1 32.8765 22.0296)" font-family="'ArialMT'" font-size="9.3736">15</text>
		</g>
		<g transform="translate(0,246.55172413793105)">
			<line fill="none" stroke="#CCCCCC" x1="51.74" y1="20.219" x2="46.115" y2="20.219"/>
			<text transform="matrix(1 0 0 1 32.8765 23.2183)" font-family="'ArialMT'" font-size="9.3736">16</text>
		</g>
		<g transform="translate(0,227.58620689655174)">
			<line fill="none" stroke="#CCCCCC" x1="51.74" y1="21.407" x2="46.115" y2="21.407"/>
			<text transform="matrix(1 0 0 1 32.8765 24.406)" font-family="'ArialMT'" font-size="9.3736">17</text>
		</g>
		<g transform="translate(0,208.6206896551724)">
			<line fill="none" stroke="#CCCCCC" x1="51.74" y1="22.595" x2="46.115" y2="22.595"/>
			<text transform="matrix(1 0 0 1 32.8765 25.5937)" font-family="'ArialMT'" font-size="9.3736">18</text>
		</g>
		<g transform="translate(0,189.6551724137931)">
			<line fill="none" stroke="#CCCCCC" x1="51.74" y1="23.783" x2="46.115" y2="23.783"/>
			<text transform="matrix(1 0 0 1 32.8765 26.7823)" font-family="'ArialMT'" font-size="9.3736">19</text>
		</g>
		<g transform="translate(0,170.68965517241378)">
			<line fill="none" stroke="#CCCCCC" x1="51.74" y1="24.971" x2="46.115" y2="24.971"/>
			<text transform="matrix(1 0 0 1 32.8765 27.97)" font-family="'ArialMT'" font-size="9.3736">20</text>
		</g>
		<g transform="translate(0,151.72413793103448)">
			<line fill="none" stroke="#CCCCCC" x1="51.74" y1="26.159" x2="46.115" y2="26.159"/>
			<text transform="matrix(1 0 0 1 32.8765 29.1577)" font-family="'ArialMT'" font-size="9.3736">21</text>
		</g>
		<g transform="translate(0,132.7586206896552)">
			<line fill="none" stroke="#CCCCCC" x1="51.74" y1="27.347" x2="46.115" y2="27.347"/>
			<text transform="matrix(1 0 0 1 32.8765 30.3464)" font-family="'ArialMT'" font-size="9.3736">22</text>
		</g>
		<g transform="translate(0,113.79310344827584)">
			<line fill="none" stroke="#CCCCCC" x1="51.74" y1="28.535" x2="46.115" y2="28.535"/>
			<text transform="matrix(1 0 0 1 32.8765 31.5341)" font-family="'ArialMT'" font-size="9.3736">23</text>
		</g>
		<g transform="translate(0,94.82758620689656)">
			<line fill="none" stroke="#CCCCCC" x1="51.74" y1="29.723" x2="46.115" y2="29.723"/>
			<text transform="matrix(1 0 0 1 32.8765 32.7217)" font-family="'ArialMT'" font-size="9.3736">24</text>
		</g>
		<g transform="translate(0,75.86206896551727)">
			<line fill="none" stroke="#CCCCCC" x1="51.74" y1="30.911" x2="46.115" y2="30.911"/>
			<text transform="matrix(1 0 0 1 32.8765 33.9104)" font-family="'ArialMT'" font-size="9.3736">25</text>
		</g>
		<g transform="translate(0,56.89655172413792)">
			<line fill="none" stroke="#CCCCCC" x1="51.74" y1="32.099" x2="46.115" y2="32.099"/>
			<text transform="matrix(1 0 0 1 32.8765 35.0981)" font-family="'ArialMT'" font-size="9.3736">26</text>
		</g>
		<g transform="translate(0,37.93103448275863)">
			<line fill="none" stroke="#CCCCCC" x1="51.74" y1="33.287" x2="46.115" y2="33.287"/>
			<text transform="matrix(1 0 0 1 32.8765 36.2858)" font-family="'ArialMT'" font-size="9.3736">27</text>
		</g>
		<g transform="translate(0,18.96551724137929)">
			<line fill="none" stroke="#CCCCCC" x1="51.74" y1="34.475" x2="46.115" y2="34.475"/>
			<text transform="matrix(1 0 0 1 32.8765 37.4744)" font-family="'ArialMT'" font-size="9.3736">28</text>
		</g>
		<g transform="translate(0,0)">
			<line fill="none" stroke="#CCCCCC" x1="51.74" y1="35.663" x2="46.115" y2="35.663"/>
			<text transform="matrix(1 0 0 1 32.8765 38.6621)" font-family="'ArialMT'" font-size="9.3736">29</text>
		</g>
		<path fill="none" stroke="#CCCCCC" d="M46.115,35.663h5.625v515.549h-5.625"/>
	</g>
	<rect x="52.677" y="35.663" fill="#4E38A3" width="162.164" height="515.549"/>
	<rect x="232.65" y="462.324" fill="#698BBF" width="162.164" height="88.888"/>
	<rect x="412.624" y="497.879" fill="#69BFBF" width="162.163" height="53.333"/>
	<rect x="592.598" y="533.434" fill="#40235C" width="162.163" height="17.778"/>
	<g transform="translate(87.5,0)">
		<line fill="none" stroke="#CCCCCC" x1="46.259" y1="551.212" x2="46.259" y2="556.836"/>
		<text transform="matrix(1 0 0 1 22.2959 566.3027)" font-family="'ArialMT'" font-size="9.3736">Sumergirse</text>
	</g>
	<g transform="translate(279.5,0)">
		<line fill="none" stroke="#CCCCCC" x1="34.232" y1="551.212" x2="34.232" y2="556.836"/>
		<text transform="matrix(1 0 0 1 4.0122 566.3027)" font-family="'ArialMT'" font-size="9.3736">Instrospeccion</text>
	</g>
	<g transform="translate(471.5,0)">
		<line fill="none" stroke="#CCCCCC" x1="22.205" y1="551.212" x2="22.205" y2="556.836"/>
		<text transform="matrix(1 0 0 1 -6.9756 566.3027)" font-family="'ArialMT'" font-size="9.3736">Confrontacion</text>
	</g>
	<g transform="translate(663.5,0)">
		<line fill="none" stroke="#CCCCCC" x1="10.179" y1="551.212" x2="10.179" y2="556.836"/>
		<text transform="matrix(1 0 0 1 -26.8193 566.3027)" font-family="'ArialMT'" font-size="9.3736">Muerte por ahogo</text>
	</g>
	<path fill="none" stroke="#CCCCCC" d="M51.74,556.836v-5.624h703.021v5.624"/>
</g>
</svg>
